<?xml version="1.0" encoding="utf-8"?>
<!-- Generator: Adobe Illustrator 23.0.1, SVG Export Plug-In . SVG Version: 6.00 Build 0)  -->
<svg version="1.1" id="Calque_1" xmlns="http://www.w3.org/2000/svg" xmlns:xlink="http://www.w3.org/1999/xlink" x="0px" y="0px"
	 viewBox="0 0 500 500" style="enable-background:new 0 0 500 500;" xml:space="preserve">
<style type="text/css">
	.st0{fill:#F5F5F5;}
	.st1{fill:#E0E0E0;}
	.st2{fill:#455A64;}
	.st3{fill:#263238;}
	.st4{fill:#37474F;}
	.st5{opacity:0.15;enable-background:new    ;}
	.st6{fill:#00A4EB;}
	.st7{opacity:0.4;fill:#FFFFFF;enable-background:new    ;}
	.st8{fill:#EBEBEB;}
	.st9{fill:#FAFAFA;}
	.st10{fill:#FFFFFF;}
	.st11{opacity:0.2;fill:#FFFFFF;enable-background:new    ;}
	.st12{opacity:0.1;enable-background:new    ;}
	.st13{opacity:0.7;fill:#FFFFFF;enable-background:new    ;}
	.st14{opacity:0.55;fill:#FFFFFF;stroke:#FFFFFF;stroke-width:1.1131;stroke-miterlimit:10;enable-background:new    ;}
	.st15{opacity:0.3;}
	.st16{opacity:0.2;}
	.st17{opacity:0.25;enable-background:new    ;}
	.st18{fill:#FFBDA7;}
	.st19{fill:#FFA8A7;}
	.st20{fill:#B16668;}
	.st21{fill:#F0997A;}
	.st22{fill:#EB8100;}
	.st23{opacity:0.45;fill:#FFFFFF;enable-background:new    ;}
	.st24{opacity:0.3;enable-background:new    ;}
	.st25{opacity:0.4;fill:#00A4EB;enable-background:new    ;}
	.st26{opacity:0.6;fill:#FFFFFF;enable-background:new    ;}
	.st27{opacity:0.2;fill:#00A4EB;enable-background:new    ;}
	.st28{opacity:0.2;enable-background:new    ;}
	.st29{opacity:0.3;fill:#FFFFFF;enable-background:new    ;}
	.st30{opacity:0.5;fill:#FFFFFF;enable-background:new    ;}
	.st31{opacity:5.000000e-02;enable-background:new    ;}
</style>
<g id="Floor">
	<ellipse id="Floor_3_" class="st0" cx="250" cy="334.3" rx="243.6" ry="145.8"/>
</g>
<g id="Shadows">
	
		<ellipse id="Shadow_00000130646476249864356180000002239459232839520700_" class="st1" cx="424.7" cy="400.6" rx="64.6" ry="37.3"/>
	<path id="Shadow_16_" class="st1" d="M18.7,385.8c0,0,4.3,2.5,13.2,0c0,0,65.2,37.7,69.5,40.1c4.3,2.5,23.2,5.7,23.2,5.7l36.4,21
		l6.8,2.3l0.8-0.4l-4.3-3.8l-36.4-21c0,0-9.9-9.6-13.2-11.5c-3.3-1.9-69.5-40.1-69.5-40.1s4-5.3,0-7.6
		C40.1,368.6,15,382.6,18.7,385.8z"/>
	<path id="Shadow_7_" class="st1" d="M54.2,351.3l-40.1-23.2c-0.9-0.5-0.9-1.4,0-1.9l96.1-55.5c0.9-0.5,2.4-0.5,3.3,0l40.2,23.2
		c0.9,0.5,0.9,1.4,0,1.9l-96.1,55.5C56.6,351.8,55.2,351.8,54.2,351.3z"/>
	<path id="Shadow_00000047764577538064552210000000117369846566869666_" class="st1" d="M328.4,461l-32.6-18.8
		c-1.2-0.7-1.2-1.8,0-2.5l32.6-18.8c1.2-0.7,3.2-0.7,4.4,0l32.6,18.8c1.2,0.7,1.2,1.8,0,2.5L332.8,461
		C331.6,461.7,329.6,461.7,328.4,461z"/>
</g>
<g id="Gears_2">
	<path id="Gear_00000101821394562282830860000012403187557104086179_" class="st1" d="M159.8,93.8C159.8,93.8,159.7,93.8,159.8,93.8
		c-1.1,0.1-2.2,0.1-3.3,0c-1.1-0.1-2.2-0.2-3.2-0.5c-0.5-0.1-0.8-0.6-0.8-1.1l0.2-2.7c-1.4-0.5-2.7-1.1-4-2l-2.1,1.8
		c-0.4,0.3-1,0.3-1.3,0c-1.7-1.4-3.1-3-4.2-4.9c-0.3-0.4-0.2-1,0.2-1.3l2.1-1.8c-0.7-1.3-1.1-2.7-1.4-4.2l-2.7-0.2
		c-0.5,0-0.9-0.4-1-0.9c-0.1-1.1-0.1-2.2,0-3.3c0.1-1.1,0.3-2.2,0.5-3.2c0.1-0.5,0.6-0.8,1.1-0.8l2.7,0.2c0.5-1.4,1.1-2.7,2-4
		l-1.8-2.1c-0.3-0.4-0.3-1,0-1.3c1.4-1.7,3.1-3.1,4.9-4.2c0.4-0.3,1-0.2,1.3,0.2l1.8,2.1c1.3-0.7,2.7-1.1,4.2-1.4l0.2-2.7
		c0-0.5,0.4-0.9,0.9-1c1.1-0.1,2.2-0.1,3.3,0c1.1,0.1,2.2,0.2,3.2,0.5c0.5,0.1,0.8,0.6,0.8,1.1l-0.2,2.7c1.4,0.5,2.7,1.1,4,2
		l2.1-1.8c0.4-0.3,1-0.3,1.3,0c1.7,1.4,3.1,3,4.2,4.9c0.3,0.4,0.2,1-0.2,1.3l-2.1,1.8c0.7,1.3,1.1,2.7,1.4,4.2l2.7,0.2
		c0.5,0,0.9,0.4,1,0.9c0.1,1.1,0.1,2.2,0,3.3c-0.1,1.1-0.2,2.2-0.5,3.2c-0.1,0.5-0.6,0.8-1.1,0.8c0,0,0,0,0,0l-2.7-0.2
		c-0.5,1.4-1.1,2.7-2,3.9l1.8,2.1c0.3,0.4,0.3,1,0,1.3c-1.4,1.7-3,3.1-4.9,4.2c-0.4,0.3-1,0.2-1.3-0.2l-1.8-2.1
		c-1.3,0.6-2.7,1.1-4.2,1.4l-0.2,2.7C160.6,93.3,160.3,93.7,159.8,93.8z M148.6,86.4c0.1,0,0.2,0,0.4,0.1c1.3,1,2.8,1.7,4.4,2.2
		c0.2,0.1,0.4,0.3,0.3,0.5l-0.2,3.1c1,0.3,2,0.5,3.1,0.5c1,0.1,2.1,0.1,3.1,0l0.3-3.2c0-0.2,0.2-0.4,0.4-0.5
		c1.6-0.3,3.2-0.8,4.6-1.5c0.2-0.1,0.5-0.1,0.6,0.1l2,2.3c1.8-1.1,3.4-2.4,4.7-4l-2-2.4c-0.1-0.2-0.2-0.4,0-0.6
		c1-1.3,1.7-2.8,2.2-4.4c0.1-0.2,0.3-0.4,0.5-0.3l3.1,0.2c0,0,0.1,0,0.1,0c0.2-1,0.4-2,0.5-3.1c0.1-1,0.1-2.1,0-3.1l-3.1-0.3
		c-0.2,0-0.4-0.2-0.5-0.4c-0.3-1.6-0.8-3.2-1.5-4.6c-0.1-0.2-0.1-0.5,0.1-0.6l2.4-2c-1.1-1.8-2.4-3.4-4-4.7l-2.4,2
		c-0.2,0.2-0.4,0.2-0.6,0c-1.3-1-2.8-1.7-4.4-2.2c-0.2-0.1-0.4-0.3-0.3-0.5l0.2-3.1c-1-0.3-2-0.5-3.1-0.5c-1-0.1-2.1-0.1-3.1,0
		l-0.3,3.2c0,0.2-0.2,0.4-0.4,0.5c-1.6,0.2-3.2,0.8-4.6,1.5c-0.2,0.1-0.5,0.1-0.6-0.1l-2-2.3c-1.8,1.1-3.4,2.4-4.7,4l2,2.4
		c0.1,0.2,0.2,0.4,0,0.6c-1,1.3-1.7,2.8-2.2,4.4c-0.1,0.2-0.3,0.4-0.5,0.3l-3.1-0.2c-0.3,1-0.5,2.1-0.5,3.1c-0.1,1-0.1,2.1,0,3.1
		l3.1,0.3c0.2,0,0.4,0.2,0.5,0.4c0.3,1.6,0.8,3.2,1.5,4.6c0.1,0.2,0.1,0.5-0.1,0.6l-2.4,2c1.1,1.8,2.4,3.4,4,4.7l2.4-2
		C148.4,86.5,148.5,86.4,148.6,86.4z M159.3,83.6c-3.2,0.4-6.4-0.7-8.5-3.2c-2.5-2.9-3-6.8-1.4-10.4c1.1-2.3,3.2-4.2,5.7-4.9
		c3.8-1.1,7.6,0,10.1,2.9c2.5,2.9,3,6.8,1.4,10.4c-1.1,2.3-3.2,4.2-5.7,4.9l0,0C160.3,83.4,159.8,83.5,159.3,83.6z M156.7,65.7
		c-0.5,0.1-0.9,0.2-1.4,0.3c-2.2,0.6-4.1,2.3-5,4.3c-1.5,3.2-1,6.8,1.2,9.3c2.2,2.6,5.7,3.5,9.1,2.6l0,0c2.2-0.6,4.1-2.3,5-4.3
		c1.5-3.2,1-6.8-1.2-9.3C162.5,66.4,159.6,65.4,156.7,65.7z"/>
	<path id="Gear_00000040572498438159043740000018002669466691439029_" class="st1" d="M460.6,84.4C460.6,84.4,460.6,84.4,460.6,84.4
		c-1.1,0.1-2.2,0.1-3.3,0c-1.1-0.1-2.2-0.2-3.2-0.5c-0.5-0.1-0.8-0.6-0.8-1.1l0.2-2.7c-1.4-0.5-2.7-1.1-4-2l-2.1,1.8
		c-0.4,0.3-1,0.3-1.3,0c-1.7-1.4-3.1-3-4.2-4.9c-0.3-0.4-0.2-1,0.2-1.3l2.1-1.8c-0.7-1.3-1.1-2.7-1.4-4.2l-2.7-0.2
		c-0.5,0-0.9-0.4-1-0.9c-0.1-1.1-0.1-2.2,0-3.3c0.1-1.1,0.3-2.2,0.5-3.2c0.1-0.5,0.6-0.8,1.1-0.8l2.7,0.2c0.5-1.4,1.1-2.7,2-4
		l-1.8-2.1c-0.3-0.4-0.3-1,0-1.3c1.4-1.7,3.1-3.1,4.9-4.2c0.4-0.3,1-0.2,1.3,0.2l1.8,2.1c1.3-0.7,2.7-1.1,4.2-1.4l0.2-2.7
		c0-0.5,0.4-0.9,0.9-1c1.1-0.1,2.2-0.1,3.3,0c1.1,0.1,2.2,0.2,3.2,0.5c0.5,0.1,0.8,0.6,0.8,1.1l-0.2,2.7c1.4,0.5,2.7,1.1,4,2
		l2.1-1.8c0.4-0.3,1-0.3,1.3,0c1.7,1.4,3.1,3,4.2,4.9c0.3,0.4,0.2,1-0.2,1.3l-2.1,1.8c0.7,1.3,1.1,2.7,1.4,4.2l2.7,0.2
		c0.5,0,0.9,0.4,1,0.9c0.1,1.1,0.1,2.1,0,3.3c-0.1,1.1-0.2,2.2-0.5,3.2c-0.1,0.5-0.6,0.8-1.1,0.8l0,0l-2.7-0.2
		c-0.5,1.4-1.1,2.7-2,3.9l1.8,2.1c0.3,0.4,0.3,1,0,1.3c-1.4,1.7-3,3.1-4.9,4.2c-0.4,0.3-1,0.2-1.3-0.2l-1.8-2.1
		c-1.3,0.6-2.7,1.1-4.2,1.4l-0.2,2.7C461.4,83.9,461.1,84.3,460.6,84.4z M449.4,77c0.1,0,0.2,0,0.4,0.1c1.3,1,2.8,1.7,4.4,2.2
		c0.2,0.1,0.4,0.3,0.3,0.5l-0.2,3.1c1,0.3,2,0.5,3.1,0.5c1,0.1,2.1,0.1,3.1,0l0.3-3.2c0-0.2,0.2-0.4,0.4-0.5
		c1.6-0.3,3.2-0.8,4.6-1.5c0.2-0.1,0.5-0.1,0.6,0.1l2,2.3c1.8-1.1,3.4-2.4,4.7-4l-2-2.4c-0.1-0.2-0.2-0.4,0-0.6
		c1-1.3,1.7-2.8,2.2-4.4c0.1-0.2,0.3-0.4,0.5-0.3l3.1,0.2c0,0,0.1,0,0.1,0c0.2-1,0.4-2,0.5-3.1c0.1-1,0.1-2.1,0-3.1l-3.1-0.3
		c-0.2,0-0.4-0.2-0.5-0.4c-0.3-1.6-0.8-3.2-1.5-4.6c-0.1-0.2-0.1-0.5,0.1-0.6l2.4-2c-1.1-1.8-2.4-3.4-4-4.7l-2.4,2
		c-0.2,0.2-0.4,0.2-0.6,0c-1.3-1-2.8-1.7-4.4-2.2c-0.2-0.1-0.4-0.3-0.3-0.5l0.2-3.1c-1-0.3-2-0.5-3.1-0.5c-1-0.1-2.1-0.1-3.1,0
		l-0.3,3.2c0,0.2-0.2,0.4-0.4,0.5c-1.6,0.2-3.2,0.8-4.6,1.5c-0.2,0.1-0.5,0.1-0.6-0.1l-2-2.3c-1.8,1.1-3.4,2.4-4.7,4l2,2.4
		c0.1,0.2,0.2,0.4,0,0.6c-1,1.3-1.7,2.8-2.2,4.4c-0.1,0.2-0.3,0.4-0.5,0.3l-3.1-0.2c-0.3,1-0.5,2.1-0.5,3.1c-0.1,1-0.1,2.1,0,3.1
		l3.1,0.3c0.2,0,0.4,0.2,0.5,0.4c0.3,1.6,0.8,3.2,1.5,4.6c0.1,0.2,0.1,0.5-0.1,0.6l-2.4,2c1.1,1.8,2.4,3.4,4,4.7l2.4-2
		C449.3,77.1,449.4,77,449.4,77z M460.1,74.2c-3.2,0.4-6.4-0.7-8.5-3.2c-2.5-2.9-3-6.8-1.4-10.4c1.1-2.3,3.2-4.2,5.7-4.9
		c3.8-1.1,7.6,0,10.1,2.9c2.5,2.9,3,6.8,1.4,10.4c-1.1,2.3-3.2,4.2-5.7,4.9l0,0C461.1,74,460.6,74.1,460.1,74.2z M457.5,56.4
		c-0.5,0.1-0.9,0.2-1.4,0.3c-2.2,0.6-4.1,2.3-5,4.3c-1.5,3.2-1,6.8,1.2,9.3c2.2,2.6,5.7,3.5,9.1,2.6l0,0c2.2-0.6,4.1-2.3,5-4.3
		c1.5-3.2,1-6.8-1.2-9.3C463.3,57,460.4,56,457.5,56.4z"/>
	<path id="Gear_00000183943436029529582810000015763758042806417574_" class="st1" d="M196.2,45.3c-2,0.6-3.7,2.1-4.6,4
		c-1.3,2.9-0.9,6.1,1.1,8.4c1.5,1.7,3.6,2.7,5.9,2.7c0.3,0,0.7,0,1-0.1c0.4-0.1,0.9-0.1,1.3-0.3c2-0.6,3.7-2.1,4.6-4
		c1.3-2.9,0.9-6.1-1.1-8.4C202.4,45.3,199.3,44.4,196.2,45.3z M204.7,55.7c-0.8,1.7-2.2,2.9-4,3.4c-2.7,0.8-5.5,0-7.2-2
		c-1.8-2-2.1-4.9-1-7.4c0.8-1.7,2.2-2.9,4-3.5c0.4-0.1,0.7-0.2,1.1-0.2c0.3,0,0.6-0.1,0.9-0.1c2,0,3.9,0.8,5.2,2.3
		C205.5,50.3,205.8,53.1,204.7,55.7z M214.4,51.2c0-0.4-0.4-0.8-0.8-0.8l-2.1-0.2c-0.2-1.1-0.6-2.2-1.1-3.3l1.6-1.4
		c0.3-0.3,0.4-0.8,0.2-1.2c-0.9-1.5-2.1-2.8-3.4-4c-0.3-0.3-0.8-0.3-1.2,0l-1.6,1.4c-1-0.7-2-1.2-3.1-1.5l0.2-2.1
		c0-0.5-0.3-0.9-0.7-1c-0.8-0.2-1.7-0.3-2.6-0.4c-0.9-0.1-1.8-0.1-2.6,0c-0.4,0-0.8,0.4-0.8,0.8l-0.2,2.1c-1.1,0.2-2.2,0.6-3.3,1.1
		l-1.4-1.6c-0.3-0.3-0.8-0.4-1.2-0.2c-1.5,0.9-2.8,2.1-4,3.4c-0.3,0.3-0.3,0.8,0,1.2l1.4,1.6c-0.7,1-1.2,2-1.6,3.1l-2.1-0.2
		c-0.4,0-0.9,0.3-1,0.7c-0.2,0.9-0.3,1.7-0.4,2.6s-0.1,1.8,0,2.6c0,0.4,0.4,0.8,0.8,0.8l2.1,0.2c0.2,1.1,0.6,2.2,1.1,3.3l-1.6,1.4
		c-0.3,0.3-0.4,0.8-0.2,1.2c0.9,1.5,2.1,2.8,3.4,4c0.3,0.3,0.8,0.3,1.2,0l1.6-1.4c0.9,0.6,2,1.2,3.1,1.5l-0.2,2.1
		c0,0.4,0.3,0.9,0.7,1c0.8,0.2,1.7,0.3,2.6,0.4c0.4,0,0.8,0,1.2,0c0.5,0,1,0,1.4-0.1l0,0c0.4-0.1,0.8-0.4,0.8-0.8l0.2-2.1
		c1.1-0.2,2.2-0.6,3.3-1.1l1.4,1.6c0.3,0.3,0.8,0.4,1.2,0.2c1.5-0.9,2.8-2.1,4-3.4c0.3-0.3,0.3-0.8,0-1.2l-1.4-1.6
		c0.7-1,1.2-2,1.6-3.1l2.1,0.2c0.4,0,0.9-0.3,1-0.7c0.2-0.9,0.3-1.7,0.4-2.6C214.5,52.9,214.5,52,214.4,51.2z M213.5,53.7
		c-0.1,0.8-0.2,1.6-0.4,2.4l-2.5-0.2c-0.2,0-0.4,0.1-0.5,0.3c-0.4,1.2-1,2.4-1.8,3.5c-0.1,0.2-0.1,0.4,0,0.6l1.6,1.9
		c-1.1,1.3-2.3,2.3-3.7,3.1l-1.6-1.8c-0.1-0.2-0.4-0.2-0.6-0.1c-1.2,0.6-2.4,1-3.7,1.2c-0.2,0-0.4,0.2-0.4,0.4l-0.2,2.5
		c-0.8,0.1-1.6,0.1-2.4,0c-0.9-0.1-1.7-0.2-2.4-0.4l0.2-2.4c0-0.2-0.1-0.4-0.3-0.5c-1.3-0.4-2.4-1-3.5-1.7c-0.1-0.1-0.2-0.1-0.3-0.1
		c-0.1,0-0.2,0.1-0.3,0.1l-1.9,1.6c-1.3-1.1-2.3-2.3-3.1-3.7l1.8-1.6c0.2-0.1,0.2-0.4,0.1-0.6c-0.6-1.2-1-2.4-1.2-3.7
		c0-0.2-0.2-0.4-0.4-0.4l-2.5-0.2c-0.1-0.8-0.1-1.6,0-2.4c0.1-0.9,0.2-1.7,0.4-2.4l2.4,0.2c0,0,0,0,0,0c0.2,0,0.4-0.1,0.5-0.3
		c0.4-1.2,1-2.4,1.8-3.5c0.1-0.2,0.1-0.4,0-0.6l-1.6-1.9c1.1-1.3,2.3-2.3,3.7-3.1l1.6,1.8c0.1,0.2,0.4,0.2,0.6,0.1
		c1.2-0.6,2.4-1,3.7-1.2c0.2,0,0.4-0.2,0.4-0.4l0.2-2.5c0.8-0.1,1.6-0.1,2.4,0c0.9,0.1,1.7,0.2,2.4,0.4l-0.2,2.4
		c0,0.2,0.1,0.4,0.3,0.5c1.2,0.4,2.4,1,3.5,1.7c0.2,0.1,0.4,0.1,0.6,0l1.9-1.6c1.3,1.1,2.3,2.3,3.1,3.7l-1.8,1.6
		c-0.2,0.1-0.2,0.4-0.1,0.6c0.6,1.2,1,2.4,1.2,3.7c0,0.2,0.2,0.4,0.4,0.4l2.5,0.2C213.6,52.1,213.6,52.9,213.5,53.7z"/>
	<path id="Gear_00000055666432393982323270000000459653826248587691_" class="st1" d="M418.6,44.8c-2,0.6-3.7,2.1-4.6,4
		c-1.3,2.9-0.9,6.1,1.1,8.4c1.5,1.7,3.6,2.7,5.9,2.7c0.3,0,0.7,0,1-0.1c0.4-0.1,0.9-0.1,1.3-0.3c2-0.6,3.7-2.1,4.6-4
		c1.3-2.9,0.9-6.1-1.1-8.4C424.8,44.8,421.6,43.9,418.6,44.8z M427,55.2c-0.8,1.7-2.2,2.9-4,3.4c-2.7,0.8-5.5,0-7.2-2
		c-1.8-2-2.1-4.9-1-7.4c0.8-1.7,2.2-2.9,4-3.5c0.4-0.1,0.7-0.2,1.1-0.2c0.3,0,0.6-0.1,0.9-0.1c2,0,3.9,0.8,5.2,2.3
		C427.8,49.8,428.2,52.6,427,55.2z M436.8,50.7c0-0.4-0.4-0.8-0.8-0.8l-2.1-0.2c-0.2-1.1-0.6-2.2-1.1-3.3l1.6-1.4
		c0.3-0.3,0.4-0.8,0.2-1.2c-0.9-1.5-2.1-2.8-3.4-4c-0.3-0.3-0.8-0.3-1.2,0l-1.6,1.4c-1-0.7-2-1.2-3.1-1.5l0.2-2.1
		c0-0.5-0.3-0.9-0.7-1c-0.8-0.2-1.7-0.3-2.6-0.4c-0.9-0.1-1.8-0.1-2.6,0c-0.4,0-0.8,0.4-0.8,0.8l-0.2,2.1c-1.1,0.2-2.2,0.6-3.3,1.1
		l-1.4-1.6c-0.3-0.3-0.8-0.4-1.2-0.2c-1.5,0.9-2.8,2.1-4,3.4c-0.3,0.3-0.3,0.8,0,1.2l1.4,1.6c-0.7,1-1.2,2-1.6,3.1l-2.1-0.2
		c-0.4,0-0.9,0.3-1,0.7c-0.2,0.9-0.3,1.7-0.4,2.6c-0.1,0.9-0.1,1.8,0,2.6c0,0.4,0.4,0.8,0.8,0.8l2.1,0.2c0.2,1.1,0.6,2.2,1.1,3.3
		l-1.6,1.4c-0.3,0.3-0.4,0.8-0.2,1.2c0.9,1.5,2.1,2.8,3.4,4c0.3,0.3,0.8,0.3,1.2,0l1.6-1.4c0.9,0.6,2,1.2,3.1,1.5l-0.2,2.1
		c0,0.4,0.3,0.9,0.7,1c0.8,0.2,1.7,0.3,2.6,0.4c0.4,0,0.8,0,1.2,0c0.5,0,1,0,1.4-0.1l0,0c0.4-0.1,0.8-0.4,0.8-0.8l0.2-2.1
		c1.1-0.2,2.2-0.6,3.3-1.1l1.4,1.6c0.3,0.3,0.8,0.4,1.2,0.2c1.5-0.9,2.8-2.1,4-3.4c0.3-0.3,0.3-0.8,0-1.2l-1.4-1.6
		c0.7-1,1.2-2,1.6-3.1l2.1,0.2c0.4,0,0.9-0.3,1-0.7c0.2-0.9,0.3-1.7,0.4-2.6C436.9,52.4,436.9,51.5,436.8,50.7z M435.9,53.2
		c-0.1,0.8-0.2,1.6-0.4,2.4l-2.5-0.2c-0.2,0-0.4,0.1-0.5,0.3c-0.4,1.2-1,2.4-1.8,3.5c-0.1,0.2-0.1,0.4,0,0.6l1.6,1.9
		c-1.1,1.3-2.3,2.3-3.7,3.1l-1.6-1.8c-0.1-0.2-0.4-0.2-0.6-0.1c-1.2,0.6-2.4,1-3.7,1.2c-0.2,0-0.4,0.2-0.4,0.4l-0.2,2.5
		c-0.8,0.1-1.6,0.1-2.4,0c-0.9-0.1-1.7-0.2-2.4-0.4l0.2-2.4c0-0.2-0.1-0.4-0.3-0.5c-1.3-0.4-2.4-1-3.5-1.7c-0.1-0.1-0.2-0.1-0.3-0.1
		c-0.1,0-0.2,0.1-0.3,0.1l-1.9,1.6c-1.3-1.1-2.3-2.3-3.1-3.7l1.8-1.6c0.2-0.1,0.2-0.4,0.1-0.6c-0.6-1.2-1-2.4-1.2-3.7
		c0-0.2-0.2-0.4-0.4-0.4l-2.5-0.2c-0.1-0.8-0.1-1.6,0-2.4c0.1-0.9,0.2-1.7,0.4-2.4l2.4,0.2c0,0,0,0,0,0c0.2,0,0.4-0.1,0.5-0.3
		c0.4-1.2,1-2.4,1.8-3.5c0.1-0.2,0.1-0.4,0-0.6l-1.6-1.9c1.1-1.3,2.3-2.3,3.7-3.1l1.6,1.8c0.1,0.2,0.4,0.2,0.6,0.1
		c1.2-0.6,2.4-1,3.7-1.2c0.2,0,0.4-0.2,0.4-0.4l0.2-2.5c0.8-0.1,1.6-0.1,2.4,0c0.9,0.1,1.7,0.2,2.4,0.4l-0.2,2.4
		c0,0.2,0.1,0.4,0.3,0.5c1.2,0.4,2.4,1,3.5,1.7c0.2,0.1,0.4,0.1,0.6,0l1.9-1.6c1.3,1.1,2.3,2.3,3.1,3.7l-1.8,1.6
		c-0.2,0.1-0.2,0.4-0.1,0.6c0.6,1.2,1,2.4,1.2,3.7c0,0.2,0.2,0.4,0.4,0.4l2.5,0.2C435.9,51.6,435.9,52.4,435.9,53.2z"/>
	<path id="Gear_00000086650861281050307590000014537810584266757252_" class="st1" d="M46.6,167.6c-1.8,0.5-3.3,1.8-4,3.5
		c-1.1,2.5-0.8,5.4,1,7.4c1.3,1.5,3.2,2.3,5.2,2.3c0.3,0,0.6,0,0.9-0.1c0.4,0,0.7-0.1,1.1-0.2c1.8-0.5,3.3-1.8,4-3.5
		c1.1-2.5,0.8-5.4-1-7.4C52.1,167.7,49.3,166.9,46.6,167.6z M54,176.7c-0.7,1.5-2,2.6-3.5,3c-2.4,0.7-4.8,0-6.3-1.8
		c-1.5-1.8-1.9-4.3-0.8-6.5c0.7-1.5,2-2.6,3.5-3c0.3-0.1,0.7-0.2,1-0.2c0.3,0,0.5-0.1,0.8-0.1c1.7,0,3.4,0.7,4.5,2
		C54.7,172,55,174.5,54,176.7z M62.6,172.8c0-0.4-0.3-0.7-0.7-0.7L60,172c-0.2-1-0.5-2-1-2.9l1.4-1.2c0.3-0.3,0.4-0.7,0.2-1
		c-0.8-1.3-1.8-2.5-3-3.5c-0.3-0.2-0.7-0.2-1,0l-1.4,1.2c-0.8-0.6-1.8-1-2.7-1.4l0.1-1.9c0-0.4-0.2-0.7-0.6-0.8
		c-0.7-0.2-1.5-0.3-2.3-0.4c-0.8-0.1-1.6-0.1-2.3,0c-0.4,0-0.7,0.3-0.7,0.7l-0.1,1.9c-1,0.2-2,0.5-2.9,0.9l-1.2-1.4
		c-0.3-0.3-0.7-0.4-1-0.2c-1.3,0.8-2.5,1.8-3.5,3c-0.2,0.3-0.2,0.7,0,1l1.2,1.4c-0.6,0.8-1,1.8-1.4,2.7l-1.9-0.1
		c-0.4,0-0.7,0.2-0.8,0.6c-0.2,0.7-0.3,1.5-0.4,2.3c-0.1,0.8,0,1.5,0,2.3c0,0.4,0.3,0.7,0.7,0.7l1.9,0.1c0.2,1,0.5,2,1,2.9l-1.4,1.2
		c-0.3,0.3-0.4,0.7-0.2,1c0.8,1.3,1.8,2.5,3,3.5c0.3,0.3,0.7,0.2,1,0l1.4-1.2c0.8,0.6,1.7,1,2.7,1.4l-0.1,1.9c0,0.4,0.2,0.7,0.6,0.8
		c0.7,0.2,1.5,0.3,2.3,0.4c0.4,0,0.7,0,1.1,0c0.4,0,0.8,0,1.3-0.1l0,0c0.4,0,0.7-0.4,0.7-0.7l0.1-1.9c1-0.2,2-0.5,2.9-0.9l1.2,1.4
		c0.3,0.3,0.7,0.4,1,0.2c1.3-0.8,2.5-1.8,3.5-3c0.3-0.3,0.2-0.7,0-1l-1.2-1.4c0.6-0.8,1-1.7,1.4-2.7l1.9,0.1c0.4,0,0.7-0.2,0.8-0.6
		c0.2-0.8,0.3-1.5,0.4-2.3C62.7,174.4,62.7,173.6,62.6,172.8z M61.8,175.1c-0.1,0.7-0.2,1.4-0.3,2.1l-2.2-0.2
		c-0.2,0-0.4,0.1-0.4,0.3c-0.3,1.1-0.9,2.1-1.5,3c-0.1,0.2-0.1,0.4,0,0.5l1.4,1.7c-0.9,1.1-2,2-3.2,2.7l-1.4-1.6
		c-0.1-0.1-0.3-0.2-0.5-0.1c-1,0.5-2.1,0.9-3.2,1.1c-0.2,0-0.3,0.2-0.4,0.4l-0.2,2.2c-0.7,0.1-1.4,0.1-2.1,0
		c-0.8-0.1-1.5-0.2-2.1-0.4l0.2-2.1c0-0.2-0.1-0.4-0.3-0.4c-1.1-0.3-2.1-0.9-3.1-1.5c-0.1-0.1-0.2-0.1-0.3-0.1c-0.1,0-0.2,0-0.2,0.1
		l-1.7,1.4c-1.1-0.9-2-2-2.7-3.2l1.6-1.4c0.1-0.1,0.2-0.3,0.1-0.5c-0.5-1-0.9-2.1-1.1-3.2c0-0.2-0.2-0.3-0.4-0.4l-2.2-0.2
		c-0.1-0.7-0.1-1.4,0-2.1c0.1-0.8,0.2-1.4,0.4-2.1l2.1,0.2c0,0,0,0,0,0c0.2,0,0.3-0.1,0.4-0.3c0.3-1.1,0.9-2.1,1.5-3.1
		c0.1-0.2,0.1-0.4,0-0.5l-1.4-1.7c0.9-1.1,2-2,3.2-2.7l1.4,1.6c0.1,0.1,0.3,0.2,0.5,0.1c1-0.5,2.1-0.9,3.2-1.1
		c0.2,0,0.3-0.2,0.4-0.4l0.2-2.2c0.7-0.1,1.4-0.1,2.1,0c0.8,0.1,1.5,0.2,2.1,0.4l-0.2,2.1c0,0.2,0.1,0.4,0.3,0.4
		c1.1,0.3,2.1,0.9,3,1.5c0.2,0.1,0.4,0.1,0.5,0l1.7-1.4c1.1,0.9,2,2,2.7,3.2l-1.6,1.4c-0.1,0.1-0.2,0.3-0.1,0.5
		c0.5,1,0.9,2.1,1.1,3.2c0,0.2,0.2,0.3,0.4,0.4l2.2,0.2C61.8,173.6,61.8,174.4,61.8,175.1z"/>
	<path id="Gear_00000111886140221251147010000009583012693018906529_" class="st1" d="M31.5,202.2c-2,0.6-3.7,2.1-4.6,4
		c-1.3,2.9-0.9,6.1,1.1,8.4c1.5,1.7,3.6,2.7,5.9,2.7c0.3,0,0.7,0,1-0.1c0.4-0.1,0.8-0.1,1.3-0.3c2-0.6,3.7-2.1,4.6-4
		c1.3-2.9,0.9-6.1-1.1-8.4C37.7,202.2,34.6,201.3,31.5,202.2z M40,212.5c-0.8,1.7-2.2,2.9-4,3.4c-2.7,0.8-5.5,0-7.2-2
		c-1.8-2-2.1-4.9-1-7.4c0.8-1.7,2.2-2.9,4-3.4c0.4-0.1,0.7-0.2,1.1-0.2c0.3,0,0.6-0.1,0.9-0.1c2,0,3.9,0.8,5.2,2.3
		C40.7,207.1,41.1,210,40,212.5z M49.7,208.1c0-0.4-0.4-0.8-0.8-0.8l-2.1-0.2c-0.2-1.1-0.6-2.2-1.1-3.3l1.6-1.4
		c0.3-0.3,0.4-0.8,0.2-1.2c-0.9-1.5-2.1-2.8-3.4-4c-0.3-0.3-0.8-0.3-1.2,0l-1.6,1.4c-1-0.7-2-1.2-3.1-1.6l0.2-2.1
		c0-0.4-0.3-0.9-0.7-1c-0.8-0.2-1.7-0.3-2.6-0.4c-0.9-0.1-1.8-0.1-2.6,0c-0.4,0-0.8,0.4-0.8,0.8l-0.2,2.1c-1.1,0.2-2.2,0.6-3.3,1.1
		l-1.4-1.6c-0.3-0.3-0.8-0.4-1.2-0.2c-1.5,0.9-2.8,2.1-4,3.4c-0.3,0.3-0.3,0.8,0,1.2l1.4,1.6c-0.7,1-1.2,2-1.6,3.1l-2.1-0.2
		c-0.4,0-0.9,0.3-1,0.7c-0.2,0.9-0.3,1.7-0.4,2.6s-0.1,1.8,0,2.6c0,0.4,0.4,0.8,0.8,0.8L21,212c0.2,1.1,0.6,2.2,1.1,3.3l-1.6,1.4
		c-0.3,0.3-0.4,0.8-0.2,1.2c0.9,1.5,2.1,2.8,3.4,4c0.3,0.3,0.8,0.3,1.2,0l1.6-1.4c0.9,0.6,2,1.2,3.1,1.5l-0.2,2.1
		c0,0.4,0.3,0.9,0.7,1c0.8,0.2,1.7,0.3,2.6,0.4c0.4,0,0.8,0,1.2,0c0.5,0,1,0,1.4-0.1l0,0c0.4-0.1,0.8-0.4,0.8-0.8l0.2-2.1
		c1.1-0.2,2.2-0.6,3.3-1.1l1.4,1.6c0.3,0.3,0.8,0.4,1.2,0.2c1.5-0.9,2.8-2.1,4-3.4c0.3-0.3,0.3-0.8,0-1.2l-1.4-1.6
		c0.7-1,1.2-2,1.6-3.1l2.1,0.2c0.4,0,0.9-0.3,1-0.7c0.2-0.9,0.3-1.7,0.4-2.6C49.8,209.8,49.8,208.9,49.7,208.1z M48.8,210.6
		c-0.1,0.8-0.2,1.6-0.4,2.4l-2.5-0.2c-0.2,0-0.4,0.1-0.5,0.3c-0.4,1.2-1,2.4-1.8,3.5c-0.1,0.2-0.1,0.4,0,0.6l1.6,1.9
		c-1.1,1.3-2.3,2.3-3.7,3.1l-1.6-1.8c-0.1-0.2-0.4-0.2-0.6-0.1c-1.2,0.6-2.4,1-3.7,1.2c-0.2,0-0.4,0.2-0.4,0.4l-0.2,2.5
		c-0.8,0.1-1.6,0.1-2.4,0c-0.9-0.1-1.7-0.2-2.4-0.4l0.2-2.4c0-0.2-0.1-0.4-0.3-0.5c-1.3-0.4-2.4-1-3.5-1.7c-0.1-0.1-0.2-0.1-0.3-0.1
		c-0.1,0-0.2,0.1-0.3,0.1l-1.9,1.6c-1.3-1.1-2.3-2.3-3.1-3.7l1.8-1.6c0.2-0.1,0.2-0.4,0.1-0.6c-0.6-1.2-1-2.4-1.2-3.7
		c0-0.2-0.2-0.4-0.4-0.4l-2.5-0.2c-0.1-0.8-0.1-1.6,0-2.4c0.1-0.9,0.2-1.7,0.4-2.4l2.4,0.2c0,0,0,0,0,0c0.2,0,0.4-0.1,0.5-0.3
		c0.4-1.2,1-2.4,1.8-3.5c0.1-0.2,0.1-0.4,0-0.6l-1.6-1.9c1.1-1.3,2.3-2.3,3.7-3.1l1.6,1.8c0.1,0.2,0.4,0.2,0.6,0.1
		c1.2-0.6,2.4-1,3.7-1.2c0.2,0,0.4-0.2,0.4-0.4l0.2-2.5c0.8-0.1,1.6-0.1,2.4,0c0.9,0.1,1.7,0.2,2.4,0.4l-0.2,2.4
		c0,0.2,0.1,0.4,0.3,0.5c1.2,0.4,2.4,1,3.5,1.7c0.2,0.1,0.4,0.1,0.6,0l1.9-1.6c1.3,1.1,2.3,2.3,3.1,3.7l-1.8,1.6
		c-0.2,0.1-0.2,0.4-0.1,0.6c0.6,1.2,1,2.4,1.2,3.7c0,0.2,0.2,0.4,0.4,0.4l2.5,0.2C48.8,209,48.8,209.8,48.8,210.6z"/>
</g>
<g id="Barrier">
	<g id="Barrier_1_">
		<g>
			<g>
				<path class="st2" d="M97.3,287l-4.4,2.5c-0.4,0.3-1.2,0.3-1.6,0l-1.4-0.8c-0.4-0.3-0.7-0.9-0.6-1.4l14.6-68.9
					c0.1-0.5,0.5-1.1,1-1.4l4.4-2.5c0.4-0.3,1.2-0.3,1.6,0l1.4,0.8c0.4,0.3,0.7,0.9,0.6,1.4l-14.6,68.9
					C98.2,286.2,97.7,286.8,97.3,287z"/>
				<path class="st3" d="M97.3,287l-4.4,2.5c-0.4,0.3-0.7,0.1-0.6-0.4l14.6-68.9c0.1-0.5,0.5-1.1,1-1.4l4.4-2.5
					c0.4-0.3,0.7-0.1,0.6,0.4l-14.6,68.9C98.2,286.2,97.7,286.8,97.3,287z"/>
			</g>
			<g>
				<polygon class="st4" points="94.9,282.5 96.2,276.4 99.2,274.7 126.9,290.6 128.2,298.3 125.2,300 				"/>
				<polygon class="st2" points="125.2,300 94.9,282.5 96.2,276.4 123.9,292.4 				"/>
			</g>
			<g>
				<path class="st4" d="M130.1,306l-4.4,2.5c-0.4,0.3-1.2,0.3-1.6,0l-1.4-0.8c-0.4-0.3-0.9-0.9-0.9-1.4l-14.6-86.1
					c-0.1-0.5,0.2-1.1,0.6-1.4l4.4-2.5c0.4-0.3,1.2-0.3,1.6,0l1.4,0.8c0.4,0.3,0.9,0.9,0.9,1.4l14.6,86.1
					C130.8,305.1,130.6,305.8,130.1,306z"/>
				<path class="st4" d="M107.2,220.3l0.6,3.3l14.1,82.8c0.1,0.5,0.5,1.1,0.9,1.4l1.4,0.8c0.4,0.3,1.2,0.3,1.6,0l4.4-2.5
					c0.4-0.3,0.7-0.9,0.6-1.4l-14.6-85.8l-0.1-0.3c-0.1-0.5-0.5-1.1-0.9-1.4l-1.4-0.8c-0.4-0.3-1.2-0.3-1.6,0l-4.4,2.5
					C107.4,219.1,107.1,219.8,107.2,220.3z"/>
				<path class="st2" d="M116.1,218.5l14.6,86.1c0.1,0.5-0.2,1.1-0.6,1.4l-4.4,2.5c-0.4,0.3-0.9,0.1-0.9-0.4L110.2,222
					c-0.1-0.5,0.2-1.1,0.6-1.4l4.4-2.5C115.6,217.8,116.1,218,116.1,218.5z"/>
			</g>
			<path class="st5" d="M103.1,221.9l2.3,1.3c0.6,0.4,1.5,0.5,2.3,0.3c0.3-0.1,0.6-0.2,0.9-0.3l7.6-4.4l-0.1-0.3
				c-0.1-0.5-0.5-1.1-0.9-1.4l-1.4-0.8c-0.4-0.3-1.2-0.3-1.6,0c0.1-0.5,0.4-0.7,0-0.9l-1.4-0.8c-0.4-0.3-1.2-0.3-1.6,0l-4.4,2.5
				c-0.4,0.3-0.9,0.9-1,1.4L103.1,221.9z"/>
			<g>
				<path class="st4" d="M100.5,216.5c0-0.3,0.2-0.7,0.7-0.9l8.8-5.1c0.9-0.5,2.3-0.5,3.2,0l4.3,2.5c0.4,0.3,0.7,0.6,0.7,0.9
					c0,0.3,0,1.7,0,2c0,0.3-0.2,0.7-0.7,0.9l-8.8,5.1c-0.9,0.5-2.3,0.5-3.2,0l-4.3-2.5c-0.4-0.3-0.7-0.6-0.7-0.9
					C100.5,218.2,100.5,216.8,100.5,216.5z"/>
				<path class="st3" d="M100.5,216.5c0-0.3,0.2-0.7,0.7-0.9l5.9-3.4v10.1c-0.6,0-1.2-0.1-1.6-0.4l-4.3-2.5
					c-0.4-0.3-0.7-0.6-0.7-0.9C100.5,218.2,100.5,216.8,100.5,216.5z"/>
				<path class="st2" d="M108.6,219.9l8.8-5.1c0.9-0.5,0.9-1.3,0-1.8l-4.3-2.5c-0.9-0.5-2.3-0.5-3.2,0l-8.8,5.1
					c-0.9,0.5-0.9,1.3,0,1.8l4.3,2.5C106.3,220.4,107.7,220.4,108.6,219.9z"/>
			</g>
		</g>
		<g>
			<g>
				<path class="st2" d="M28.6,326.7l-4.4,2.5c-0.4,0.3-1.2,0.3-1.6,0l-1.4-0.8c-0.4-0.3-0.7-0.9-0.6-1.4l14.5-68.9
					c0.1-0.5,0.5-1.1,1-1.4l4.4-2.5c0.4-0.3,1.2-0.3,1.6,0l1.4,0.8c0.4,0.3,0.7,0.9,0.6,1.4l-14.5,68.9
					C29.5,325.8,29,326.4,28.6,326.7z"/>
				<path class="st3" d="M28.6,326.7l-4.4,2.5c-0.4,0.3-0.7,0.1-0.6-0.4l14.5-68.9c0.1-0.5,0.5-1.1,1-1.4l4.4-2.5
					c0.4-0.3,0.7-0.1,0.6,0.4l-14.5,68.9C29.5,325.8,29,326.4,28.6,326.7z"/>
			</g>
			<g>
				<polygon class="st4" points="26.2,322.3 27.5,316.2 30.5,314.4 58.1,330.4 59.4,338.1 56.4,339.8 				"/>
				<polygon class="st2" points="56.4,339.8 26.2,322.3 27.5,316.2 55.1,332.1 				"/>
			</g>
			<g>
				<path class="st4" d="M61.4,345.7l-4.4,2.5c-0.4,0.3-1.2,0.3-1.6,0l-1.4-0.8c-0.4-0.3-0.9-0.9-0.9-1.4l-14.6-86.1
					c-0.1-0.5,0.2-1.1,0.6-1.4l4.4-2.5c0.4-0.3,1.2-0.3,1.6,0l1.4,0.8c0.4,0.3,0.9,0.9,0.9,1.4l14.6,86.1
					C62.2,344.8,61.9,345.4,61.4,345.7z"/>
				<path class="st4" d="M38.5,259.9l0.6,3.3L53.1,346c0.1,0.5,0.5,1.1,0.9,1.4l1.4,0.8c0.4,0.3,1.2,0.3,1.6,0l4.4-2.5
					c0.4-0.3,0.7-0.9,0.6-1.4l-14.6-85.8l-0.1-0.3c-0.1-0.5-0.5-1.1-0.9-1.4l-1.4-0.8c-0.4-0.3-1.2-0.3-1.6,0l-4.4,2.5
					C38.7,258.8,38.4,259.4,38.5,259.9z"/>
				<path class="st2" d="M47.5,258.2l14.6,86.1c0.1,0.5-0.2,1.1-0.6,1.4l-4.4,2.5c-0.4,0.3-0.9,0.1-1-0.4l-14.6-86.1
					c-0.1-0.5,0.2-1.1,0.6-1.4l4.4-2.5C46.9,257.5,47.4,257.7,47.5,258.2z"/>
			</g>
			<path class="st5" d="M34.5,261.5l2.3,1.3c0.6,0.4,1.5,0.5,2.3,0.3c0.3-0.1,0.6-0.2,0.9-0.3l7.6-4.4l-0.1-0.3
				c-0.1-0.5-0.5-1.1-0.9-1.4l-1.4-0.8c-0.4-0.3-1.2-0.3-1.6,0c0.1-0.5,0.4-0.7,0-0.9l-1.4-0.8c-0.4-0.3-1.2-0.3-1.6,0l-4.4,2.5
				c-0.4,0.3-0.9,0.9-1,1.4L34.5,261.5z"/>
			<g>
				<path class="st4" d="M31.8,256.2c0-0.3,0.2-0.7,0.7-0.9l8.8-5.1c0.9-0.5,2.3-0.5,3.2,0l4.3,2.5c0.4,0.3,0.7,0.6,0.7,0.9
					c0,0.3,0,1.7,0,2c0,0.3-0.2,0.7-0.7,0.9l-8.8,5.1c-0.9,0.5-2.3,0.5-3.2,0l-4.3-2.5c-0.4-0.3-0.7-0.6-0.7-0.9
					C31.8,257.8,31.8,256.5,31.8,256.2z"/>
				<path class="st3" d="M31.8,256.2c0-0.3,0.2-0.7,0.7-0.9l5.9-3.4v10.1c-0.6,0-1.2-0.1-1.6-0.4l-4.3-2.5c-0.4-0.3-0.7-0.6-0.7-0.9
					C31.8,257.8,31.8,256.5,31.8,256.2z"/>
				<path class="st2" d="M39.9,259.6l8.8-5.1c0.9-0.5,0.9-1.3,0-1.8l-4.3-2.5c-0.9-0.5-2.3-0.5-3.2,0l-8.8,5.1
					c-0.9,0.5-0.9,1.3,0,1.8l4.3,2.5C37.6,260.1,39.1,260.1,39.9,259.6z"/>
			</g>
		</g>
		<g>
			<g>
				<polygon class="st6" points="35.4,271.1 127.9,217.6 126.4,216.8 33.8,270.2 				"/>
				<polygon class="st7" points="35.4,271.1 127.9,217.6 126.4,216.8 33.8,270.2 				"/>
				<polygon class="st6" points="35.4,271.1 39.8,297.8 132.4,244.4 127.9,217.6 				"/>
				<polygon class="st1" points="33.8,270.2 38.3,296.9 39.8,297.8 35.4,271.1 				"/>
			</g>
			<g>
				<polygon class="st8" points="43.8,266.2 39.8,297.8 35.4,271.1 				"/>
				<polygon class="st8" points="123.9,249.3 127.9,217.6 132.4,244.4 				"/>
			</g>
			<g>
				<g>
					<polygon class="st8" points="55.4,288.8 59.4,257.2 50.2,262.5 46.2,294.1 					"/>
					<polygon class="st8" points="70.9,279.9 74.9,248.2 65.7,253.5 61.7,285.2 					"/>
					<polygon class="st8" points="86.5,270.9 90.5,239.3 81.3,244.6 77.3,276.2 					"/>
					<polygon class="st8" points="102,261.9 106,230.3 96.8,235.6 92.8,267.2 					"/>
					<polygon class="st8" points="117.6,252.9 121.6,221.3 112.4,226.6 108.4,258.2 					"/>
				</g>
				<g>
					<polygon class="st9" points="50.2,262.5 48.7,261.6 57.9,256.3 59.4,257.2 					"/>
					<polygon class="st9" points="65.7,253.5 64.2,252.7 73.4,247.4 74.9,248.2 					"/>
					<polygon class="st9" points="81.3,244.6 79.8,243.7 89,238.4 90.5,239.3 					"/>
					<polygon class="st9" points="96.8,235.6 95.3,234.7 104.5,229.4 106,230.3 					"/>
					<polygon class="st9" points="112.4,226.6 110.9,225.7 120.1,220.4 121.6,221.3 					"/>
				</g>
				<polygon class="st9" points="35.4,271.1 33.8,270.2 42.3,265.3 43.8,266.2 				"/>
			</g>
		</g>
	</g>
</g>
<g id="Device">
	<g id="Laptop_00000059293448810590608580000011868235721678820231_">
		<g>
			<path id="XMLID_00000163059460363000874070000008366681934673139602_" class="st4" d="M83.9,359.5c0,3.6,2.7,8,6,9.9l139.3,80.4
				c3.3,1.9,8.6,1.9,11.9,0l217.3-125.5c3.3-1.9,6-6.3,6-9.9s-2.7-8-6-9.9l-139.3-80.4c-3.3-1.9-8.6-1.9-11.9,0L89.9,349.6
				C86.6,351.5,83.9,356,83.9,359.5z"/>
			<path id="XMLID_00000030448058379895773630000014533860113788446368_" class="st2" d="M89.9,356.5L229.2,437
				c3.3,1.9,8.6,1.9,11.9,0l217.3-125.5c3.3-1.9,3.3-5,0-6.9l-139.3-80.4c-3.3-1.9-8.6-1.9-11.9,0L89.9,349.6
				C86.6,351.5,86.6,354.6,89.9,356.5z"/>
			<path id="XMLID_00000118396363576817528710000017863284002206002615_" class="st3" d="M235.2,438.4v12.9c-2.2,0-4.3-0.5-6-1.4
				L89.9,369.4c-3.3-1.9-6-6.3-6-9.9c0-3.3,2.4-7.4,5.3-9.5c-2.7,1.9-2.5,4.7,0.6,6.5L229.2,437C230.8,437.9,233,438.4,235.2,438.4z
				"/>
		</g>
		<g>
			<path class="st4" d="M309.6,35.6c-2.8-2.2-7.6-2.2-10.9-0.3L81.4,160.7c-3.3,1.9-6,6.5-6,10.3l0,170.2c0,0,0,0,0,0v0
				c0,3.8,2.4,8,5.7,9.2c3.5,1.4,5.5,1,8.8-0.9c0,0,0,0,0,0l217.3-125.5c3.3-1.9,6-6.5,6-10.3V43.6
				C313.2,39.8,312.5,37.9,309.6,35.6z"/>
			<path id="XMLID_00000075870462097211435370000010277932392349841283_" class="st2" d="M313.2,43.6c0-3.8-2.7-5.3-6-3.4
				L89.9,165.7c-1.6,0.9-3.1,2.6-4.2,4.4l-8.5-4.9h0c1.1-1.9,2.6-3.5,4.2-4.4L298.7,35.3c3.3-1.9,8.1-1.9,10.9,0.3
				C312.5,37.9,313.2,39.8,313.2,43.6z"/>
			<path class="st3" d="M83.9,346.2l0-170.2c0-1.9,0.7-4,1.7-5.9v0l-8.5-4.9c-1.1,1.9-1.7,4-1.7,5.9l0,170.2c0,3.8,2.4,8,5.7,9.2
				c3.5,1.4,5.5,1,8.8-0.9C86.6,351.5,83.9,350,83.9,346.2z"/>
		</g>
		<g>
			<path id="XMLID_00000131342676454641438370000001366544246012947633_" d="M93.1,172.5L302.2,51.8c2-1.1,3.6-0.2,3.6,2.1v158.3
				c0,2.3-1.6,5-3.6,6.2L93.1,339.1c-2,1.1-3.6,0.2-3.6-2.1V178.7C89.5,176.4,91.1,173.7,93.1,172.5z"/>
		</g>
		<path class="st10" d="M93.1,172.5c-2,1.1-3.6,3.9-3.6,6.2v155.5l206.8-119.3c2-1.1,3.6-3.9,3.6-6.2V53.2L93.1,172.5z"/>
		<g>
			<path id="XMLID_00000050631214820554097990000010527755205355859078_" class="st3" d="M108.2,350.6L308,235.3
				c1.5-0.9,4.1-0.9,5.6,0l7.3,4.1c1.5,0.9,1.5,2.3,0,3.2L121.1,357.9c-1.6,0.9-4.1,0.9-5.6,0l-7.2-4.1
				C106.7,353,106.7,351.5,108.2,350.6z"/>
			<g id="XMLID_00000127043662856587673780000017706199242726988207_">
				<path id="XMLID_00000101086961492137140160000017164476003008475529_" class="st3" d="M127.9,362.2l199.7-115.3
					c1.5-0.9,3.8-1,5.1-0.3l52,30c1.3,0.7,1.1,2.1-0.5,3L184.7,394.8c-1.6,0.9-3.8,1-5.1,0.3l-52.2-29.9
					C126.1,364.4,126.3,363.1,127.9,362.2z"/>
				<path id="XMLID_00000142173306034378994990000004442540186291278213_" class="st2" d="M300.9,295.3l6.3-3.6
					c0.3-0.2,0.3-0.4,0.1-0.5l-6-3.5c-0.2-0.1-0.6-0.1-0.9,0l-6.3,3.6c-0.3,0.2-0.3,0.4-0.1,0.5l6,3.5
					C300.3,295.5,300.7,295.5,300.9,295.3z M291.8,282.8l-6.3,3.6c-0.3,0.2-0.3,0.4-0.1,0.5l6,3.5c0.2,0.1,0.6,0.1,0.9,0l6.3-3.6
					c0.3-0.2,0.3-0.4,0.1-0.5l-6-3.5C292.5,282.7,292.1,282.7,291.8,282.8z M271.6,294.5l-10.6,6.1c-0.3,0.2-0.3,0.4-0.1,0.5l6,3.5
					c0.2,0.1,0.6,0.1,0.9,0l10.6-6.1c0.3-0.2,0.3-0.4,0.1-0.5l-6-3.5C272.3,294.3,271.9,294.4,271.6,294.5z M282.7,288.1l-6.3,3.6
					c-0.3,0.2-0.3,0.4-0.1,0.5l6,3.5c0.2,0.1,0.6,0.1,0.9,0l6.3-3.6c0.3-0.2,0.3-0.4,0.1-0.5l-6-3.5
					C283.3,288,282.9,288,282.7,288.1z M258.1,302.3l-6.3,3.6c-0.3,0.2-0.3,0.4-0.1,0.5l6,3.5c0.2,0.1,0.6,0.1,0.9,0l6.3-3.6
					c0.3-0.2,0.3-0.4,0.1-0.5l-6-3.5C258.8,302.1,258.4,302.1,258.1,302.3z M249,307.6l-6.3,3.6c-0.3,0.2-0.3,0.4-0.1,0.5l6,3.5
					c0.2,0.1,0.6,0.1,0.9,0l6.3-3.6c0.3-0.2,0.3-0.4,0.1-0.5l-6-3.5C249.7,307.4,249.3,307.4,249,307.6z M272.4,321.7l6.3-3.6
					c0.3-0.2,0.3-0.4,0.1-0.5l-6-3.5c-0.2-0.1-0.6-0.1-0.9,0l-6.3,3.6c-0.3,0.2-0.3,0.4-0.1,0.5l6,3.5
					C271.8,321.8,272.2,321.8,272.4,321.7z M263.3,326.9l6.3-3.6c0.3-0.2,0.3-0.4,0.1-0.5l-6-3.5c-0.2-0.1-0.6-0.1-0.9,0l-6.3,3.6
					c-0.3,0.2-0.3,0.4-0.1,0.5l6,3.5C262.6,327.1,263,327.1,263.3,326.9z M254.2,332.2l6.3-3.6c0.3-0.2,0.3-0.4,0.1-0.5l-6-3.5
					c-0.2-0.1-0.6-0.1-0.9,0l-6.3,3.6c-0.3,0.2-0.3,0.4-0.1,0.5l6,3.5C253.5,332.4,253.9,332.4,254.2,332.2z M245,337.5l6.3-3.6
					c0.3-0.2,0.3-0.4,0.1-0.5l-6-3.5c-0.2-0.1-0.6-0.1-0.9,0l-6.3,3.6c-0.3,0.2-0.3,0.4-0.1,0.5l6,3.5
					C244.3,337.7,244.8,337.6,245,337.5z M291.8,300.6l6.3-3.6c0.3-0.2,0.3-0.4,0.1-0.5l-6-3.5c-0.2-0.1-0.6-0.1-0.9,0l-6.3,3.6
					c-0.3,0.2-0.3,0.4-0.1,0.5l6,3.5C291.1,300.8,291.5,300.8,291.8,300.6z M281.6,316.4l14-8.1c0.3-0.2,0.3-0.4,0.1-0.5l-14.5-8.4
					c-0.2-0.1-0.6-0.1-0.9,0l-7.2,4.2c-0.3,0.2-0.3,0.4-0.1,0.5l7.7,4.4c0.2,0.1,0.2,0.4-0.1,0.5l-5.8,3.3c-0.3,0.2-0.3,0.4-0.1,0.5
					l6,3.5C280.9,316.5,281.3,316.5,281.6,316.4z M239.9,312.8l-6.3,3.6c-0.3,0.2-0.3,0.4-0.1,0.5l6,3.5c0.2,0.1,0.6,0.1,0.9,0
					l6.3-3.6c0.3-0.2,0.3-0.4,0.1-0.5l-6-3.5C240.5,312.7,240.1,312.7,239.9,312.8z M230.7,318.1l-6.3,3.6c-0.3,0.2-0.3,0.4-0.1,0.5
					l6,3.5c0.2,0.1,0.6,0.1,0.9,0l6.3-3.6c0.3-0.2,0.3-0.4,0.1-0.5l-6-3.5C231.4,317.9,231,318,230.7,318.1z M180.1,374.5
					c0.2,0.1,0.6,0.1,0.9,0l6.3-3.6c0.3-0.2,0.3-0.4,0.1-0.5l-6-3.5c-0.2-0.1-0.6-0.1-0.9,0l-6.3,3.6c-0.3,0.2-0.3,0.4-0.1,0.5
					L180.1,374.5z M157.6,360.3l-6.3,3.6c-0.3,0.2-0.3,0.4-0.1,0.5l6,3.5c0.2,0.1,0.6,0.1,0.9,0l6.3-3.6c0.3-0.2,0.3-0.4,0.1-0.5
					l-6-3.5C158.3,360.2,157.9,360.2,157.6,360.3z M169.2,370.9c0.2,0.1,0.6,0.1,0.9,0l6.3-3.6c0.3-0.2,0.3-0.4,0.1-0.5l-6-3.5
					c-0.2-0.1-0.6-0.1-0.9,0l-6.3,3.6c-0.3,0.2-0.3,0.4-0.1,0.5L169.2,370.9z M194.4,376.6l6.3-3.6c0.3-0.2,0.3-0.4,0.1-0.5l-6-3.5
					c-0.2-0.1-0.6-0.1-0.9,0l-6.3,3.6c-0.3,0.2-0.3,0.4-0.1,0.5l6,3.5C193.7,376.7,194.1,376.7,194.4,376.6z M184.4,381.9
					c0.2,0.1,0.6,0.1,0.9,0l6.3-3.6c0.3-0.2,0.3-0.4,0.1-0.5l-6-3.5c-0.2-0.1-0.6-0.1-0.9,0l-6.3,3.6c-0.3,0.2-0.3,0.4-0.1,0.5
					L184.4,381.9z M166.7,355l-6.3,3.6c-0.3,0.2-0.3,0.4-0.1,0.5l6,3.5c0.2,0.1,0.6,0.1,0.9,0l6.3-3.6c0.3-0.2,0.3-0.4,0.1-0.5
					l-6-3.5C167.4,354.9,167,354.9,166.7,355z M212.4,328.7l-6.3,3.6c-0.3,0.2-0.3,0.4-0.1,0.5l6,3.5c0.2,0.1,0.6,0.1,0.9,0l6.3-3.6
					c0.3-0.2,0.3-0.4,0.1-0.5l-6-3.5C213.1,328.5,212.7,328.5,212.4,328.7z M175.9,349.8l-6.3,3.6c-0.3,0.2-0.3,0.4-0.1,0.5l6,3.5
					c0.2,0.1,0.6,0.1,0.9,0l6.3-3.6c0.3-0.2,0.3-0.4,0.1-0.5l-6-3.5C176.5,349.6,176.1,349.6,175.9,349.8z M221.6,323.4l-6.3,3.6
					c-0.3,0.2-0.3,0.4-0.1,0.5l6,3.5c0.2,0.1,0.6,0.1,0.9,0l6.3-3.6c0.3-0.2,0.3-0.4,0.1-0.5l-6-3.5
					C222.2,323.2,221.8,323.2,221.6,323.4z M203.3,333.9l-6.3,3.6c-0.3,0.2-0.3,0.4-0.1,0.5l6,3.5c0.2,0.1,0.6,0.1,0.9,0l6.3-3.6
					c0.3-0.2,0.3-0.4,0.1-0.5l-6-3.5C204,333.8,203.6,333.8,203.3,333.9z M194.1,339.2l-6.3,3.6c-0.3,0.2-0.3,0.4-0.1,0.5l6,3.5
					c0.2,0.1,0.6,0.1,0.9,0l6.3-3.6c0.3-0.2,0.3-0.4,0.1-0.5l-6-3.5C194.8,339.1,194.4,339.1,194.1,339.2z M185,344.5l-6.3,3.6
					c-0.3,0.2-0.3,0.4-0.1,0.5l6,3.5c0.2,0.1,0.6,0.1,0.9,0l6.3-3.6c0.3-0.2,0.3-0.4,0.1-0.5l-6-3.5
					C185.7,344.3,185.3,344.3,185,344.5z M226.7,348l6.3-3.6c0.3-0.2,0.3-0.4,0.1-0.5l-6-3.5c-0.2-0.1-0.6-0.1-0.9,0l-6.3,3.6
					c-0.3,0.2-0.3,0.4-0.1,0.5l6,3.5C226.1,348.2,226.5,348.2,226.7,348z M312,271.2l-6.3,3.6c-0.3,0.2-0.3,0.4-0.1,0.5l6,3.5
					c0.2,0.1,0.6,0.1,0.9,0l6.3-3.6c0.3-0.2,0.3-0.4,0.1-0.5l-6-3.5C312.7,271,312.3,271,312,271.2z M300.9,277.6l-6.3,3.6
					c-0.3,0.2-0.3,0.4-0.1,0.5l6,3.5c0.2,0.1,0.6,0.1,0.9,0l6.3-3.6c0.3-0.2,0.3-0.4,0.1-0.5l-6-3.5
					C301.6,277.4,301.2,277.4,300.9,277.6z M321.1,265.9l-6.3,3.6c-0.3,0.2-0.3,0.4-0.1,0.5l6,3.5c0.2,0.1,0.6,0.1,0.9,0l6.3-3.6
					c0.3-0.2,0.3-0.4,0.1-0.5l-6-3.5C321.8,265.7,321.4,265.7,321.1,265.9z M270.6,312.8l6.3-3.6c0.3-0.2,0.3-0.4,0.1-0.5l-6-3.5
					c-0.2-0.1-0.6-0.1-0.9,0l-6.3,3.6c-0.3,0.2-0.3,0.4-0.1,0.5l6,3.5C270,313,270.4,313,270.6,312.8z M331.2,260.6
					c-0.2-0.1-0.6-0.1-0.9,0l-6.3,3.6c-0.3,0.2-0.3,0.4-0.1,0.5l6,3.5c0.2,0.1,0.6,0.1,0.9,0l6.3-3.6c0.3-0.2,0.3-0.4,0.1-0.5
					L331.2,260.6z M235.9,342.8l6.3-3.6c0.3-0.2,0.3-0.4,0.1-0.5l-6-3.5c-0.2-0.1-0.6-0.1-0.9,0l-6.3,3.6c-0.3,0.2-0.3,0.4-0.1,0.5
					l6,3.5C235.2,342.9,235.6,342.9,235.9,342.8z M348,278l6.3-3.6c0.3-0.2,0.3-0.4,0.1-0.5l-6-3.5c-0.2-0.1-0.6-0.1-0.9,0l-6.3,3.6
					c-0.3,0.2-0.3,0.4-0.1,0.5l6,3.5C347.3,278.2,347.7,278.2,348,278z M330.3,278.4l6.3-3.6c0.3-0.2,0.3-0.4,0.1-0.5l-6-3.5
					c-0.2-0.1-0.6-0.1-0.9,0l-6.3,3.6c-0.3,0.2-0.3,0.4-0.1,0.5l6,3.5C329.6,278.6,330,278.5,330.3,278.4z M339.7,265.5
					c-0.2-0.1-0.6-0.1-0.9,0l-6.3,3.6c-0.3,0.2-0.3,0.4-0.1,0.5l6,3.5c0.2,0.1,0.6,0.1,0.9,0l6.3-3.6c0.3-0.2,0.3-0.4,0.1-0.5
					L339.7,265.5z M341.7,264.4l14.5,8.4c0.2,0.1,0.6,0.1,0.9,0l6.3-3.6c0.3-0.2,0.3-0.4,0.1-0.5l-14.5-8.4c-0.2-0.1-0.6-0.1-0.9,0
					l-6.3,3.6C341.5,264,341.4,264.3,341.7,264.4z M320.6,276.1l-6.3,3.6c-0.3,0.2-0.3,0.4-0.1,0.5l6,3.5c0.2,0.1,0.6,0.1,0.9,0
					l6.3-3.6c0.3-0.2,0.3-0.4,0.1-0.5l-6-3.5C321.2,275.9,320.8,276,320.6,276.1z M251.8,315.8l-6.3,3.6c-0.3,0.2-0.3,0.4-0.1,0.5
					l6,3.5c0.2,0.1,0.6,0.1,0.9,0l6.3-3.6c0.3-0.2,0.3-0.4,0.1-0.5l-6-3.5C252.4,315.7,252,315.7,251.8,315.8z M337.9,283.4
					c0.2,0.1,0.6,0.1,0.9,0l6.3-3.6c0.3-0.2,0.3-0.4,0.1-0.5l-6-3.5c-0.2-0.1-0.6-0.1-0.9,0l-6.3,3.6c-0.3,0.2-0.3,0.4-0.1,0.5
					L337.9,283.4z M260.9,310.5l-6.3,3.6c-0.3,0.2-0.3,0.4-0.1,0.5l6,3.5c0.2,0.1,0.6,0.1,0.9,0l6.3-3.6c0.3-0.2,0.3-0.4,0.1-0.5
					l-6-3.5C261.6,310.4,261.2,310.4,260.9,310.5z M189.3,369.2c0.2,0.1,0.6,0.1,0.9,0l6.3-3.6c0.3-0.2,0.3-0.4,0.1-0.5l-6-3.5
					c-0.2-0.1-0.6-0.1-0.9,0l-6.3,3.6c-0.3,0.2-0.3,0.4-0.1,0.5L189.3,369.2z M178.6,358l-6.3,3.6c-0.3,0.2-0.3,0.4-0.1,0.5l6,3.5
					c0.2,0.1,0.6,0.1,0.9,0l6.3-3.6c0.3-0.2,0.3-0.4,0.1-0.5l-6-3.5C179.3,357.9,178.9,357.9,178.6,358z M199.3,363.9l6.3-3.6
					c0.3-0.2,0.3-0.4,0.1-0.5l-6-3.5c-0.2-0.1-0.6-0.1-0.9,0l-6.3,3.6c-0.3,0.2-0.3,0.4-0.1,0.5l6,3.5
					C198.6,364,199.1,364,199.3,363.9z M208.5,358.6l6.3-3.6c0.3-0.2,0.3-0.4,0.1-0.5l-6-3.5c-0.2-0.1-0.6-0.1-0.9,0l-6.3,3.6
					c-0.3,0.2-0.3,0.4-0.1,0.5l6,3.5C207.8,358.8,208.2,358.7,208.5,358.6z M217.6,353.3l6.3-3.6c0.3-0.2,0.3-0.4,0.1-0.5l-6-3.5
					c-0.2-0.1-0.6-0.1-0.9,0l-6.3,3.6c-0.3,0.2-0.3,0.4-0.1,0.5l6,3.5C216.9,353.5,217.3,353.5,217.6,353.3z M187.8,352.8l-6.3,3.6
					c-0.3,0.2-0.3,0.4-0.1,0.5l6,3.5c0.2,0.1,0.6,0.1,0.9,0l6.3-3.6c0.3-0.2,0.3-0.4,0.1-0.5l-6-3.5
					C188.5,352.6,188.1,352.6,187.8,352.8z M196.9,347.5l-6.3,3.6c-0.3,0.2-0.3,0.4-0.1,0.5l6,3.5c0.2,0.1,0.6,0.1,0.9,0l6.3-3.6
					c0.3-0.2,0.3-0.4,0.1-0.5l-6-3.5C197.6,347.3,197.2,347.3,196.9,347.5z M233.5,326.4l-6.3,3.6c-0.3,0.2-0.3,0.4-0.1,0.5l6,3.5
					c0.2,0.1,0.6,0.1,0.9,0l6.3-3.6c0.3-0.2,0.3-0.4,0.1-0.5l-6-3.5C234.2,326.2,233.8,326.2,233.5,326.4z M224.3,331.7l-6.3,3.6
					c-0.3,0.2-0.3,0.4-0.1,0.5l6,3.5c0.2,0.1,0.6,0.1,0.9,0l6.3-3.6c0.3-0.2,0.3-0.4,0.1-0.5l-6-3.5
					C225,331.5,224.6,331.5,224.3,331.7z M242.6,321.1l-6.3,3.6c-0.3,0.2-0.3,0.4-0.1,0.5l6,3.5c0.2,0.1,0.6,0.1,0.9,0l6.3-3.6
					c0.3-0.2,0.3-0.4,0.1-0.5l-6-3.5C243.3,320.9,242.9,321,242.6,321.1z M206.1,342.2l-6.3,3.6c-0.3,0.2-0.3,0.4-0.1,0.5l6,3.5
					c0.2,0.1,0.6,0.1,0.9,0l6.3-3.6c0.3-0.2,0.3-0.4,0.1-0.5l-6-3.5C206.7,342,206.3,342.1,206.1,342.2z M215.2,336.9l-6.3,3.6
					c-0.3,0.2-0.3,0.4-0.1,0.5l6,3.5c0.2,0.1,0.6,0.1,0.9,0l6.3-3.6c0.3-0.2,0.3-0.4,0.1-0.5l-6-3.5
					C215.9,336.8,215.5,336.8,215.2,336.9z M203.5,371.3l6.3-3.6c0.3-0.2,0.3-0.4,0.1-0.5l-6-3.5c-0.2-0.1-0.6-0.1-0.9,0l-6.3,3.6
					c-0.3,0.2-0.3,0.4-0.1,0.5l6,3.5C202.9,371.5,203.3,371.5,203.5,371.3z M155.3,369l-6-3.5c-0.2-0.1-0.6-0.1-0.9,0l-6.3,3.6
					c-0.3,0.2-0.3,0.4-0.1,0.5l6,3.5c0.2,0.1,0.6,0.1,0.9,0l6.3-3.6C155.6,369.4,155.6,369.2,155.3,369z M167.3,372l-6-3.5
					c-0.2-0.1-0.6-0.1-0.9,0l-9.6,5.6c-0.3,0.2-0.3,0.4-0.1,0.5l6,3.5c0.2,0.1,0.6,0.1,0.9,0l9.6-5.6
					C167.5,372.4,167.5,372.2,167.3,372z M146.4,362.2l-6-3.5c-0.2-0.1-0.6-0.1-0.9,0l-7.7,4.4c-0.3,0.2-0.3,0.4-0.1,0.5l6,3.5
					c0.2,0.1,0.6,0.1,0.9,0l7.7-4.4C146.6,362.6,146.6,362.3,146.4,362.2z M152.3,358.8c0.2,0.1,0.6,0.1,0.9,0l6.3-3.6
					c0.3-0.2,0.3-0.4,0.1-0.5l-6-3.5c-0.2-0.1-0.6-0.1-0.9,0l-6.3,3.6c-0.3,0.2-0.3,0.4-0.1,0.5L152.3,358.8z M178.2,375.6l-6-3.5
					c-0.2-0.1-0.6-0.1-0.9,0l-12,6.9c-0.3,0.2-0.3,0.4-0.1,0.5l6,3.5c0.2,0.1,0.6,0.1,0.9,0l12-6.9
					C178.4,375.9,178.4,375.7,178.2,375.6z M182.4,383l-6-3.5c-0.2-0.1-0.6-0.1-0.9,0l-7.7,4.4c-0.3,0.2-0.3,0.4-0.1,0.5l6,3.5
					c0.2,0.1,0.6,0.1,0.9,0l7.7-4.4C182.6,383.4,182.7,383.1,182.4,383z M220.3,319.6c0.2,0.1,0.6,0.1,0.9,0l6.3-3.6
					c0.3-0.2,0.3-0.4,0.1-0.5l-6-3.5c-0.2-0.1-0.6-0.1-0.9,0l-6.3,3.6c-0.3,0.2-0.3,0.4-0.1,0.5L220.3,319.6z M202,330.1
					c0.2,0.1,0.6,0.1,0.9,0l6.3-3.6c0.3-0.2,0.3-0.4,0.1-0.5l-6-3.5c-0.2-0.1-0.6-0.1-0.9,0l-6.3,3.6c-0.3,0.2-0.3,0.4-0.1,0.5
					L202,330.1z M161.5,353.5c0.2,0.1,0.6,0.1,0.9,0l6.3-3.6c0.3-0.2,0.3-0.4,0.1-0.5l-6-3.5c-0.2-0.1-0.6-0.1-0.9,0l-6.3,3.6
					c-0.3,0.2-0.3,0.4-0.1,0.5L161.5,353.5z M211.1,324.8c0.2,0.1,0.6,0.1,0.9,0l6.3-3.6c0.3-0.2,0.3-0.4,0.1-0.5l-6-3.5
					c-0.2-0.1-0.6-0.1-0.9,0l-6.3,3.6c-0.3,0.2-0.3,0.4-0.1,0.5L211.1,324.8z M192.8,335.4c0.2,0.1,0.6,0.1,0.9,0l6.3-3.6
					c0.3-0.2,0.3-0.4,0.1-0.5l-6-3.5c-0.2-0.1-0.6-0.1-0.9,0l-6.3,3.6c-0.3,0.2-0.3,0.4-0.1,0.5L192.8,335.4z M186.9,383.4
					c-0.2-0.1-0.6-0.1-0.9,0l-9.6,5.6c-0.3,0.2-0.3,0.4-0.1,0.5l6,3.5c0.2,0.1,0.6,0.1,0.9,0l9.6-5.6c0.3-0.2,0.3-0.4,0.1-0.5
					L186.9,383.4z M179.7,343c0.2,0.1,0.6,0.1,0.9,0l6.3-3.6c0.3-0.2,0.3-0.4,0.1-0.5l-6-3.5c-0.2-0.1-0.6-0.1-0.9,0l-6.3,3.6
					c-0.3,0.2-0.3,0.4-0.1,0.5L179.7,343z M170.6,348.2c0.2,0.1,0.6,0.1,0.9,0l6.3-3.6c0.3-0.2,0.3-0.4,0.1-0.5l-6-3.5
					c-0.2-0.1-0.6-0.1-0.9,0l-6.3,3.6c-0.3,0.2-0.3,0.4-0.1,0.5L170.6,348.2z M356.2,285.6c-0.2-0.1-0.6-0.1-0.9,0l-15.4,8.9
					c-0.3,0.2-0.3,0.4-0.1,0.5l6,3.5c0.2,0.1,0.6,0.1,0.9,0l15.4-8.9c0.3-0.2,0.3-0.4,0.1-0.5L356.2,285.6z M336,297.3
					c-0.2-0.1-0.6-0.1-0.9,0l-6.3,3.6c-0.3,0.2-0.3,0.4-0.1,0.5l6,3.5c0.2,0.1,0.6,0.1,0.9,0l6.3-3.6c0.3-0.2,0.3-0.4,0.1-0.5
					L336,297.3z M212.7,366l6.3-3.6c0.3-0.2,0.3-0.4,0.1-0.5l-6-3.5c-0.2-0.1-0.6-0.1-0.9,0l-6.3,3.6c-0.3,0.2-0.3,0.4-0.1,0.5
					l6,3.5C212,366.2,212.4,366.2,212.7,366z M317.8,307.8c-0.2-0.1-0.6-0.1-0.9,0l-6.3,3.6c-0.3,0.2-0.3,0.4-0.1,0.5l6,3.5
					c0.2,0.1,0.6,0.1,0.9,0l6.3-3.6c0.3-0.2,0.3-0.4,0.1-0.5L317.8,307.8z M365.4,280.3c-0.2-0.1-0.6-0.1-0.9,0l-6.3,3.6
					c-0.3,0.2-0.3,0.4-0.1,0.5l6,3.5c0.2,0.1,0.6,0.1,0.9,0l6.3-3.6c0.3-0.2,0.3-0.4,0.1-0.5L365.4,280.3z M380.5,278.5l-14.5-8.4
					c-0.2-0.1-0.6-0.1-0.9,0l-6.3,3.6c-0.3,0.2-0.3,0.4-0.1,0.5l14.5,8.4c0.2,0.1,0.6,0.1,0.9,0l6.3-3.6
					C380.7,278.9,380.7,278.6,380.5,278.5z M283.6,327.5c-0.2-0.1-0.6-0.1-0.9,0L275,332c-0.3,0.2-0.3,0.4-0.1,0.5l6,3.5
					c0.2,0.1,0.6,0.1,0.9,0l7.7-4.4c0.3-0.2,0.3-0.4,0.1-0.5L283.6,327.5z M306.7,314.2c-0.2-0.1-0.6-0.1-0.9,0l-9.6,5.6
					c-0.3,0.2-0.3,0.4-0.1,0.5l6,3.5c0.2,0.1,0.6,0.1,0.9,0l9.6-5.6c0.3-0.2,0.3-0.4,0.1-0.5L306.7,314.2z M262.4,339.8
					c-0.2-0.1-0.6-0.1-0.9,0l-51.5,29.7c-0.3,0.2-0.3,0.4-0.1,0.5l6,3.5c0.2,0.1,0.6,0.1,0.9,0l51.5-29.7c0.3-0.2,0.3-0.4,0.1-0.5
					L262.4,339.8z M208.1,371.1c-0.2-0.1-0.6-0.1-0.9,0l-7.7,4.4c-0.3,0.2-0.3,0.4-0.1,0.5l6,3.5c0.2,0.1,0.6,0.1,0.9,0l7.7-4.4
					c0.3-0.2,0.3-0.4,0.1-0.5L208.1,371.1z M273,333.7c-0.2-0.1-0.6-0.1-0.9,0l-7.7,4.4c-0.3,0.2-0.3,0.4-0.1,0.5l6,3.5
					c0.2,0.1,0.6,0.1,0.9,0l7.7-4.4c0.3-0.2,0.3-0.4,0.1-0.5L273,333.7z M197.5,377.3c-0.2-0.1-0.6-0.1-0.9,0l-7.7,4.4
					c-0.3,0.2-0.3,0.4-0.1,0.5l6,3.5c0.2,0.1,0.6,0.1,0.9,0l7.7-4.4c0.3-0.2,0.3-0.4,0.1-0.5L197.5,377.3z M294.2,321.4
					c-0.2-0.1-0.6-0.1-0.9,0l-7.7,4.4c-0.3,0.2-0.3,0.4-0.1,0.5l6,3.5c0.2,0.1,0.6,0.1,0.9,0l7.7-4.4c0.3-0.2,0.3-0.4,0.1-0.5
					L294.2,321.4z M326.9,302.5c-0.2-0.1-0.6-0.1-0.9,0l-6.3,3.6c-0.3,0.2-0.3,0.4-0.1,0.5l6,3.5c0.2,0.1,0.6,0.1,0.9,0l6.3-3.6
					c0.3-0.2,0.3-0.4,0.1-0.5L326.9,302.5z M347.4,288.3l6.3-3.6c0.3-0.2,0.3-0.4,0.1-0.5l-6-3.5c-0.2-0.1-0.6-0.1-0.9,0l-6.3,3.6
					c-0.3,0.2-0.3,0.4-0.1,0.5l6,3.5C346.7,288.4,347.1,288.4,347.4,288.3z M310.1,290.1l6.3-3.6c0.3-0.2,0.3-0.4,0.1-0.5l-6-3.5
					c-0.2-0.1-0.6-0.1-0.9,0l-6.3,3.6c-0.3,0.2-0.3,0.4-0.1,0.5l6,3.5C309.4,290.2,309.8,290.2,310.1,290.1z M285.8,323.8l18.3-10.6
					c0.3-0.2,0.3-0.4,0.1-0.5l-6-3.5c-0.2-0.1-0.6-0.1-0.9,0L279,319.9c-0.3,0.2-0.3,0.4-0.1,0.5l6,3.5
					C285.1,324,285.5,324,285.8,323.8z M337.3,293.6c0.2,0.1,0.6,0.1,0.9,0l6.3-3.6c0.3-0.2,0.3-0.4,0.1-0.5l-6-3.5
					c-0.2-0.1-0.6-0.1-0.9,0l-6.3,3.6c-0.3,0.2-0.3,0.4-0.1,0.5L337.3,293.6z M329.7,288.6l6.3-3.6c0.3-0.2,0.3-0.4,0.1-0.5l-6-3.5
					c-0.2-0.1-0.6-0.1-0.9,0l-6.3,3.6c-0.3,0.2-0.3,0.4-0.1,0.5l6,3.5C329,288.8,329.4,288.8,329.7,288.6z M276.7,329.1l6.3-3.6
					c0.3-0.2,0.3-0.4,0.1-0.5l-6-3.5c-0.2-0.1-0.6-0.1-0.9,0l-6.3,3.6c-0.3,0.2-0.3,0.4-0.1,0.5l6,3.5
					C276,329.3,276.4,329.2,276.7,329.1z M317.1,305.2c0.2,0.1,0.6,0.1,0.9,0l6.3-3.6c0.3-0.2,0.3-0.4,0.1-0.5l-6-3.5
					c-0.2-0.1-0.6-0.1-0.9,0l-6.3,3.6c-0.3,0.2-0.3,0.4-0.1,0.5L317.1,305.2z M231,355.5l6.3-3.6c0.3-0.2,0.3-0.4,0.1-0.5l-6-3.5
					c-0.2-0.1-0.6-0.1-0.9,0l-6.3,3.6c-0.3,0.2-0.3,0.4-0.1,0.5l6,3.5C230.3,355.6,230.7,355.6,231,355.5z M240.1,350.2l6.3-3.6
					c0.3-0.2,0.3-0.4,0.1-0.5l-6-3.5c-0.2-0.1-0.6-0.1-0.9,0l-6.3,3.6c-0.3,0.2-0.3,0.4-0.1,0.5l6,3.5
					C239.4,350.4,239.8,350.3,240.1,350.2z M221.8,360.7l6.3-3.6c0.3-0.2,0.3-0.4,0.1-0.5l-6-3.5c-0.2-0.1-0.6-0.1-0.9,0l-6.3,3.6
					c-0.3,0.2-0.3,0.4-0.1,0.5l6,3.5C221.1,360.9,221.6,360.9,221.8,360.7z M258.4,339.6l6.3-3.6c0.3-0.2,0.3-0.4,0.1-0.5l-6-3.5
					c-0.2-0.1-0.6-0.1-0.9,0l-6.3,3.6c-0.3,0.2-0.3,0.4-0.1,0.5l6,3.5C257.7,339.8,258.1,339.8,258.4,339.6z M249.2,344.9l6.3-3.6
					c0.3-0.2,0.3-0.4,0.1-0.5l-6-3.5c-0.2-0.1-0.6-0.1-0.9,0l-6.3,3.6c-0.3,0.2-0.3,0.4-0.1,0.5l6,3.5
					C248.6,345.1,249,345.1,249.2,344.9z M267.5,334.4l6.3-3.6c0.3-0.2,0.3-0.4,0.1-0.5l-6-3.5c-0.2-0.1-0.6-0.1-0.9,0l-6.3,3.6
					c-0.3,0.2-0.3,0.4-0.1,0.5l6,3.5C266.8,334.5,267.3,334.5,267.5,334.4z M317.4,261c0.2,0.1,0.6,0.1,0.9,0l6.3-3.6
					c0.3-0.2,0.3-0.4,0.1-0.5l-1.6-0.9c-0.2-0.1-0.6-0.1-0.9,0l-6.3,3.6c-0.3,0.2-0.3,0.4-0.1,0.5L317.4,261z M272,289.7
					c0.2,0.1,0.6,0.1,0.9,0l6.3-3.6c0.3-0.2,0.3-0.4,0.1-0.5l-6-3.5c-0.2-0.1-0.6-0.1-0.9,0l-6.3,3.6c-0.3,0.2-0.3,0.4-0.1,0.5
					L272,289.7z M290.2,279.2c0.2,0.1,0.6,0.1,0.9,0l6.3-3.6c0.3-0.2,0.3-0.4,0.1-0.5l-6-3.5c-0.2-0.1-0.6-0.1-0.9,0l-6.3,3.6
					c-0.3,0.2-0.3,0.4-0.1,0.5L290.2,279.2z M260.8,296.2c0.2,0.1,0.6,0.1,0.9,0l6.3-3.6c0.3-0.2,0.3-0.4,0.1-0.5l-6-3.5
					c-0.2-0.1-0.6-0.1-0.9,0l-6.3,3.6c-0.3,0.2-0.3,0.4-0.1,0.5L260.8,296.2z M281.1,284.4c0.2,0.1,0.6,0.1,0.9,0l6.3-3.6
					c0.3-0.2,0.3-0.4,0.1-0.5l-6-3.5c-0.2-0.1-0.6-0.1-0.9,0l-6.3,3.6c-0.3,0.2-0.3,0.4-0.1,0.5L281.1,284.4z M242.5,306.7
					c0.2,0.1,0.6,0.1,0.9,0l6.3-3.6c0.3-0.2,0.3-0.4,0.1-0.5l-6-3.5c-0.2-0.1-0.6-0.1-0.9,0l-6.3,3.6c-0.3,0.2-0.3,0.4-0.1,0.5
					L242.5,306.7z M251.7,301.4c0.2,0.1,0.6,0.1,0.9,0l6.3-3.6c0.3-0.2,0.3-0.4,0.1-0.5l-6-3.5c-0.2-0.1-0.6-0.1-0.9,0l-6.3,3.6
					c-0.3,0.2-0.3,0.4-0.1,0.5L251.7,301.4z M299.1,271.5c0.2,0.1,0.6,0.1,0.9,0l6.3-3.6c0.3-0.2,0.3-0.4,0.1-0.5l-1.6-0.9
					c-0.2-0.1-0.6-0.1-0.9,0l-6.3,3.6c-0.3,0.2-0.3,0.4-0.1,0.5L299.1,271.5z M326.5,255.7c0.2,0.1,0.6,0.1,0.9,0l6.3-3.6
					c0.3-0.2,0.3-0.4,0.1-0.5l-1.6-0.9c-0.2-0.1-0.6-0.1-0.9,0l-6.3,3.6c-0.3,0.2-0.3,0.4-0.1,0.5L326.5,255.7z M339.1,262.9
					c0.2,0.1,0.6,0.1,0.9,0l6.3-3.6c0.3-0.2,0.3-0.4,0.1-0.5l-6-3.5c-0.2-0.1-0.6-0.1-0.9,0l-6.3,3.6c-0.3,0.2-0.3,0.4-0.1,0.5
					L339.1,262.9z M356.5,283l6.3-3.6c0.3-0.2,0.3-0.4,0.1-0.5l-6-3.5c-0.2-0.1-0.6-0.1-0.9,0l-6.3,3.6c-0.3,0.2-0.3,0.4-0.1,0.5
					l6,3.5C355.8,283.2,356.2,283.1,356.5,283z M308.3,266.2c0.2,0.1,0.6,0.1,0.9,0l6.3-3.6c0.3-0.2,0.3-0.4,0.1-0.5l-1.6-0.9
					c-0.2-0.1-0.6-0.1-0.9,0l-6.3,3.6c-0.3,0.2-0.3,0.4-0.1,0.5L308.3,266.2z M233.4,312c0.2,0.1,0.6,0.1,0.9,0l6.3-3.6
					c0.3-0.2,0.3-0.4,0.1-0.5l-6-3.5c-0.2-0.1-0.6-0.1-0.9,0l-6.3,3.6c-0.3,0.2-0.3,0.4-0.1,0.5L233.4,312z"/>
			</g>
			<g>
				<polygon id="XMLID_00000110461073034706527180000002616235968598373262_" class="st3" points="259.6,364 260.9,364.8 297,385.6 
					361.3,348.6 362.6,347.8 325.1,326.2 				"/>
				<polygon class="st4" points="360.4,349 325.1,328.7 261.7,365.3 297,385.6 				"/>
			</g>
		</g>
	</g>
</g>
<g id="Gears_1">
	<g id="Gears_00000118397270213939889260000011976958912721715589_">
		<g id="Gear_00000109748818781858453760000001323278642487757963_">
			<g>
				<path class="st6" d="M264.4,210.3c0.8-0.7,2.1-0.8,3-0.2l3.4,2.6c0.9,0.7,2.1,0.5,2.8-0.4l6.6-9.1c0.6-0.9,0.7-2.4,0.1-3.3
					l-2.6-4.1c-0.6-0.9-0.7-2.5-0.2-3.5c0.8-1.8,1.6-3.6,2.3-5.4c0.4-1,1.4-2.3,2.4-2.8l6.5-3.2c1-0.5,1.9-1.8,2.1-2.9l1.4-9.6
					c0.1-0.6-0.1-1.1-0.5-1.4l0,0l-0.1-0.1c0,0,0,0,0,0l-7.9-4.6l0,0c-0.3-0.2-0.7-0.2-1.1-0.1l-0.7,0.2c0-0.9,0.2-1.9,0.6-2.5
					l5.5-8.7c0.6-0.9,0.5-2.3-0.3-3.1l-3.5-3.8c-0.1-0.2-0.3-0.3-0.5-0.4l0,0l-8-4.6l0,0c-0.7-0.4-1.6-0.2-2.1,0.4l-5.1,6.2l0.2-3.5
					c0-0.6-0.2-1-0.6-1.3l0,0l-8-4.6l0,0c-0.3-0.2-0.7-0.2-1.2,0l-7,2.6c-1,0.4-2.1,1.6-2.3,2.6l-2,8.9c-0.2,1.1-1.2,2.4-2.1,3.1
					c-1.3,1-2.6,2-3.8,3.2c-0.4,0.3-0.8,0.5-1.3,0.6l-5.4-3.1l0,0c-0.9-0.5-1.9-0.3-2.5,0.6l-6.6,9.1c-0.6,0.9-0.7,2.4-0.1,3.3
					l2.6,4.1c0.6,0.9,0.7,2.5,0.2,3.5c-0.8,1.8-1.6,3.6-2.3,5.4c-0.4,1-1.4,2.3-2.4,2.8l-6.5,3.2c-1,0.5-1.9,1.8-2.1,2.9l-1.4,9.6
					c-0.1,0.7,0.1,1.2,0.6,1.4l0,0l8,4.6c0,0,0,0,0,0c0.3,0.2,0.7,0.2,1.1,0.1l0.7-0.2c0,0.9-0.2,1.9-0.6,2.5l-5.5,8.7
					c-0.6,0.9-0.5,2.3,0.3,3.1l3.5,3.8c0.1,0.1,0.3,0.3,0.4,0.4l0,0l8,4.6l0,0c0.7,0.4,1.6,0.3,2.2-0.4l5.1-6.2l-0.2,3.5
					c0,0.6,0.2,1.1,0.6,1.3l0,0l8,4.6l0,0c0.3,0.2,0.7,0.2,1.2,0l7-2.6c1-0.4,2.1-1.6,2.3-2.6l2-8.9c0.2-1.1,1.2-2.4,2.1-3.1
					C261.9,212.5,263.2,211.5,264.4,210.3z M262.9,166.6c1.1,2.4,1.5,5.6,1,9.4c-1.5,10.4-9.4,21.2-17.6,24.2
					c-1.2,0.4-2.2,0.7-3.2,0.8c-1.1-2.4-1.5-5.6-1-9.4c1.5-10.4,9.4-21.2,17.6-24.2C260.8,166.9,261.9,166.6,262.9,166.6z"/>
				<path class="st11" d="M264.4,210.3c0.8-0.7,2.1-0.8,3-0.2l3.4,2.6c0.9,0.7,2.1,0.5,2.8-0.4l6.6-9.1c0.6-0.9,0.7-2.4,0.1-3.3
					l-2.6-4.1c-0.6-0.9-0.7-2.5-0.2-3.5c0.8-1.8,1.6-3.6,2.3-5.4c0.4-1,1.4-2.3,2.4-2.8l6.5-3.2c1-0.5,1.9-1.8,2.1-2.9l1.4-9.6
					c0.1-0.6-0.1-1.1-0.5-1.4l0,0l-0.1-0.1c0,0,0,0,0,0l-7.9-4.6l0,0c-0.3-0.2-0.7-0.2-1.1-0.1l-0.7,0.2c0-0.9,0.2-1.9,0.6-2.5
					l5.5-8.7c0.6-0.9,0.5-2.3-0.3-3.1l-3.5-3.8c-0.1-0.2-0.3-0.3-0.5-0.4l0,0l-8-4.6l0,0c-0.7-0.4-1.6-0.2-2.1,0.4l-5.1,6.2l0.2-3.5
					c0-0.6-0.2-1-0.6-1.3l0,0l-8-4.6l0,0c-0.3-0.2-0.7-0.2-1.2,0l-7,2.6c-1,0.4-2.1,1.6-2.3,2.6l-2,8.9c-0.2,1.1-1.2,2.4-2.1,3.1
					c-1.3,1-2.6,2-3.8,3.2c-0.4,0.3-0.8,0.5-1.3,0.6l-5.4-3.1l0,0c-0.9-0.5-1.9-0.3-2.5,0.6l-6.6,9.1c-0.6,0.9-0.7,2.4-0.1,3.3
					l2.6,4.1c0.6,0.9,0.7,2.5,0.2,3.5c-0.8,1.8-1.6,3.6-2.3,5.4c-0.4,1-1.4,2.3-2.4,2.8l-6.5,3.2c-1,0.5-1.9,1.8-2.1,2.9l-1.4,9.6
					c-0.1,0.7,0.1,1.2,0.6,1.4l0,0l8,4.6c0,0,0,0,0,0c0.3,0.2,0.7,0.2,1.1,0.1l0.7-0.2c0,0.9-0.2,1.9-0.6,2.5l-5.5,8.7
					c-0.6,0.9-0.5,2.3,0.3,3.1l3.5,3.8c0.1,0.1,0.3,0.3,0.4,0.4l0,0l8,4.6l0,0c0.7,0.4,1.6,0.3,2.2-0.4l5.1-6.2l-0.2,3.5
					c0,0.6,0.2,1.1,0.6,1.3l0,0l8,4.6l0,0c0.3,0.2,0.7,0.2,1.2,0l7-2.6c1-0.4,2.1-1.6,2.3-2.6l2-8.9c0.2-1.1,1.2-2.4,2.1-3.1
					C261.9,212.5,263.2,211.5,264.4,210.3z M262.9,166.6c1.1,2.4,1.5,5.6,1,9.4c-1.5,10.4-9.4,21.2-17.6,24.2
					c-1.2,0.4-2.2,0.7-3.2,0.8c-1.1-2.4-1.5-5.6-1-9.4c1.5-10.4,9.4-21.2,17.6-24.2C260.8,166.9,261.9,166.6,262.9,166.6z"/>
			</g>
			<path class="st12" d="M271.9,153.1c1.1,0.3,2.5-0.1,3.2-0.9l6.3-7.6c0.6-0.6,1.4-0.8,2-0.5l-7.9-4.6c-0.7-0.4-1.6-0.2-2.1,0.4
				l-5.1,6.2l-0.3,4.6c-0.1,1.1,0.8,1.9,1.9,2C270.6,152.8,271.2,152.9,271.9,153.1z M283.6,162.6L283.6,162.6
				c-0.3-0.2-0.7-0.2-1.1-0.1l-0.7,0.2c0,0.4,0.1,0.7,0.1,1.1c0.3,1,0.5,2.1,0.7,3.2c0.2,1.1,1.1,1.8,2.1,1.5l5.8-1.4
				c0.4-0.1,0.8,0,1.1,0.1L283.6,162.6z"/>
			<path class="st12" d="M271.9,180.6c1.3-8.9-2.6-14.6-9-14c1.1,2.4,1.5,5.6,1,9.4c-1.5,10.4-9.4,21.2-17.6,24.2
				c-1.2,0.4-2.2,0.7-3.2,0.8c1.9,4.1,6,5.8,11.2,3.9C262.5,201.8,270.4,190.9,271.9,180.6z"/>
			<g>
				<path class="st6" d="M236.7,177.6c-0.1-0.5-0.2-1-0.5-1.3l-2.6-4.1c-0.4-0.6-0.5-1.4-0.4-2.1l-8-4.6c-0.1,0.7,0,1.5,0.4,2.1
					l2.6,4.1c0.2,0.4,0.4,0.9,0.4,1.4L236.7,177.6z M222.4,204.9C222.4,204.9,222.4,204.9,222.4,204.9c-0.4-0.2-0.6-0.7-0.6-1.4
					l1.4-9.5c0.1-0.7,0.5-1.5,1.1-2.1l-8-4.6c-0.6,0.6-1,1.4-1.1,2.1l-1.4,9.6c-0.1,0.7,0.1,1.1,0.6,1.4L222.4,204.9z M255.4,155.4
					l2-8.8c0.1-0.6,0.6-1.3,1.1-1.9l-8-4.6c-0.5,0.5-1,1.2-1.1,1.9l-2,8.8L255.4,155.4z M230.4,228c-0.1-0.1-0.3-0.2-0.4-0.4
					l-3.5-3.8c-0.7-0.8-0.9-2.2-0.3-3.1l5.5-8.7c0.3-0.4,0.4-1,0.5-1.5l-8-4.6c-0.1,0.6-0.3,1.1-0.5,1.5l-5.5,8.7
					c-0.6,0.9-0.5,2.3,0.3,3.1l3.5,3.8c0.1,0.2,0.3,0.3,0.4,0.4L230.4,228z M246,230.7c-0.1-0.1-0.2-0.1-0.2-0.2
					c-0.1-0.1-0.2-0.3-0.3-0.5c0-0.2-0.1-0.3,0-0.6l0.5-8c0-0.2,0-0.4-0.1-0.5c-0.1-0.3-0.2-0.6-0.4-0.8c-0.2-0.2-0.3-0.3-0.6-0.4
					c-0.1-0.1-0.2-0.1-0.3-0.1c-0.2,0-0.3-0.1-0.5-0.1c-0.7-0.1-1.4-0.2-2-0.3c-1.1-0.3-2.5,0.1-3.2,0.9l-1.2,1.4l-0.2,3.5
					c0,0.6,0.2,1.1,0.6,1.3l0,0L246,230.7z"/>
				<path class="st13" d="M236.7,177.6c-0.1-0.5-0.2-1-0.5-1.3l-2.6-4.1c-0.4-0.6-0.5-1.4-0.4-2.1l-8-4.6c-0.1,0.7,0,1.5,0.4,2.1
					l2.6,4.1c0.2,0.4,0.4,0.9,0.4,1.4L236.7,177.6z M222.4,204.9C222.4,204.9,222.4,204.9,222.4,204.9c-0.4-0.2-0.6-0.7-0.6-1.4
					l1.4-9.5c0.1-0.7,0.5-1.5,1.1-2.1l-8-4.6c-0.6,0.6-1,1.4-1.1,2.1l-1.4,9.6c-0.1,0.7,0.1,1.1,0.6,1.4L222.4,204.9z M255.4,155.4
					l2-8.8c0.1-0.6,0.6-1.3,1.1-1.9l-8-4.6c-0.5,0.5-1,1.2-1.1,1.9l-2,8.8L255.4,155.4z M230.4,228c-0.1-0.1-0.3-0.2-0.4-0.4
					l-3.5-3.8c-0.7-0.8-0.9-2.2-0.3-3.1l5.5-8.7c0.3-0.4,0.4-1,0.5-1.5l-8-4.6c-0.1,0.6-0.3,1.1-0.5,1.5l-5.5,8.7
					c-0.6,0.9-0.5,2.3,0.3,3.1l3.5,3.8c0.1,0.2,0.3,0.3,0.4,0.4L230.4,228z M246,230.7c-0.1-0.1-0.2-0.1-0.2-0.2
					c-0.1-0.1-0.2-0.3-0.3-0.5c0-0.2-0.1-0.3,0-0.6l0.5-8c0-0.2,0-0.4-0.1-0.5c-0.1-0.3-0.2-0.6-0.4-0.8c-0.2-0.2-0.3-0.3-0.6-0.4
					c-0.1-0.1-0.2-0.1-0.3-0.1c-0.2,0-0.3-0.1-0.5-0.1c-0.7-0.1-1.4-0.2-2-0.3c-1.1-0.3-2.5,0.1-3.2,0.9l-1.2,1.4l-0.2,3.5
					c0,0.6,0.2,1.1,0.6,1.3l0,0L246,230.7z"/>
			</g>
			<g>
				<path id="XMLID_00000095305086463954190620000010712113486087013821_" class="st6" d="M256.5,225.5l2-8.9
					c0.2-1.1,1.2-2.4,2.1-3.1c1.3-1,2.6-2,3.8-3.2c0.8-0.7,2.1-0.8,3-0.2l3.4,2.6c0.9,0.7,2.1,0.5,2.8-0.4l6.6-9.1
					c0.6-0.9,0.7-2.4,0.1-3.3l-2.6-4.1c-0.6-0.9-0.7-2.5-0.2-3.5c0.8-1.8,1.6-3.6,2.3-5.4c0.4-1,1.4-2.3,2.4-2.8l6.5-3.2
					c1-0.5,1.9-1.8,2.1-2.9l1.4-9.6c0.2-1.1-0.6-1.8-1.7-1.5l-5.8,1.4c-1.1,0.3-2-0.4-2.1-1.5c-0.2-1.1-0.4-2.2-0.7-3.2
					c-0.3-1.1-0.2-2.6,0.4-3.6l5.5-8.7c0.6-0.9,0.5-2.3-0.3-3.1l-3.5-3.8c-0.7-0.8-1.9-0.8-2.6,0.1l-6.3,7.6
					c-0.7,0.8-2.1,1.2-3.2,0.9c-0.7-0.2-1.3-0.3-2-0.3c-1.1-0.1-1.9-0.9-1.9-2l0.5-8c0.1-1.1-0.7-1.7-1.8-1.3l-7,2.6
					c-1,0.4-2.1,1.6-2.3,2.6l-2,8.9c-0.2,1.1-1.2,2.4-2.1,3.1c-1.3,1-2.6,2-3.8,3.2c-0.8,0.7-2.1,0.8-3,0.2l-3.4-2.6
					c-0.9-0.7-2.1-0.5-2.8,0.4l-6.6,9.1c-0.6,0.9-0.7,2.4-0.1,3.3l2.6,4.1c0.6,0.9,0.7,2.5,0.2,3.5c-0.8,1.8-1.6,3.6-2.3,5.4
					c-0.4,1-1.4,2.3-2.4,2.8l-6.5,3.2c-1,0.5-1.9,1.8-2.1,2.9l-1.4,9.6c-0.2,1.1,0.6,1.8,1.7,1.5l5.8-1.4c1.1-0.3,2,0.4,2.1,1.5
					c0.2,1.1,0.4,2.2,0.7,3.2c0.3,1.1,0.2,2.6-0.4,3.6l-5.5,8.7c-0.6,0.9-0.5,2.3,0.3,3.1l3.5,3.8c0.7,0.8,1.9,0.8,2.6-0.1l6.3-7.6
					c0.7-0.8,2.1-1.2,3.2-0.9c0.7,0.2,1.3,0.3,2,0.3c1.1,0.1,1.9,0.9,1.9,2l-0.5,8c-0.1,1.1,0.7,1.7,1.8,1.3l7-2.6
					C255.3,227.8,256.3,226.6,256.5,225.5z M254.3,204.8c-8.2,3-13.7-2.9-12.2-13.3c1.5-10.4,9.4-21.2,17.6-24.2
					c8.2-3,13.7,2.9,12.2,13.3C270.4,190.9,262.5,201.8,254.3,204.8z"/>
				<path id="XMLID_00000057866120588489762440000002716531773715135897_" class="st14" d="M256.5,225.5l2-8.9
					c0.2-1.1,1.2-2.4,2.1-3.1c1.3-1,2.6-2,3.8-3.2c0.8-0.7,2.1-0.8,3-0.2l3.4,2.6c0.9,0.7,2.1,0.5,2.8-0.4l6.6-9.1
					c0.6-0.9,0.7-2.4,0.1-3.3l-2.6-4.1c-0.6-0.9-0.7-2.5-0.2-3.5c0.8-1.8,1.6-3.6,2.3-5.4c0.4-1,1.4-2.3,2.4-2.8l6.5-3.2
					c1-0.5,1.9-1.8,2.1-2.9l1.4-9.6c0.2-1.1-0.6-1.8-1.7-1.5l-5.8,1.4c-1.1,0.3-2-0.4-2.1-1.5c-0.2-1.1-0.4-2.2-0.7-3.2
					c-0.3-1.1-0.2-2.6,0.4-3.6l5.5-8.7c0.6-0.9,0.5-2.3-0.3-3.1l-3.5-3.8c-0.7-0.8-1.9-0.8-2.6,0.1l-6.3,7.6
					c-0.7,0.8-2.1,1.2-3.2,0.9c-0.7-0.2-1.3-0.3-2-0.3c-1.1-0.1-1.9-0.9-1.9-2l0.5-8c0.1-1.1-0.7-1.7-1.8-1.3l-7,2.6
					c-1,0.4-2.1,1.6-2.3,2.6l-2,8.9c-0.2,1.1-1.2,2.4-2.1,3.1c-1.3,1-2.6,2-3.8,3.2c-0.8,0.7-2.1,0.8-3,0.2l-3.4-2.6
					c-0.9-0.7-2.1-0.5-2.8,0.4l-6.6,9.1c-0.6,0.9-0.7,2.4-0.1,3.3l2.6,4.1c0.6,0.9,0.7,2.5,0.2,3.5c-0.8,1.8-1.6,3.6-2.3,5.4
					c-0.4,1-1.4,2.3-2.4,2.8l-6.5,3.2c-1,0.5-1.9,1.8-2.1,2.9l-1.4,9.6c-0.2,1.1,0.6,1.8,1.7,1.5l5.8-1.4c1.1-0.3,2,0.4,2.1,1.5
					c0.2,1.1,0.4,2.2,0.7,3.2c0.3,1.1,0.2,2.6-0.4,3.6l-5.5,8.7c-0.6,0.9-0.5,2.3,0.3,3.1l3.5,3.8c0.7,0.8,1.9,0.8,2.6-0.1l6.3-7.6
					c0.7-0.8,2.1-1.2,3.2-0.9c0.7,0.2,1.3,0.3,2,0.3c1.1,0.1,1.9,0.9,1.9,2l-0.5,8c-0.1,1.1,0.7,1.7,1.8,1.3l7-2.6
					C255.3,227.8,256.3,226.6,256.5,225.5z M254.3,204.8c-8.2,3-13.7-2.9-12.2-13.3c1.5-10.4,9.4-21.2,17.6-24.2
					c8.2-3,13.7,2.9,12.2,13.3C270.4,190.9,262.5,201.8,254.3,204.8z"/>
			</g>
		</g>
		<g id="Gear_00000003793424846942389960000017813358629049494930_">
			<g>
				<path class="st6" d="M158.8,278.2l13.4-7.7c0.8-0.5,1.5-1.6,1.6-2.5l1.3-14.9c0.1-0.9,0.7-2.2,1.4-2.8c2.6-2.4,5.1-5,7.4-7.9
					c0.6-0.7,1.8-1.1,2.6-0.7l8.6,3c0.9,0.3,2-0.1,2.4-0.9l9.8-17c0.5-0.8,0.3-1.9-0.4-2.5l-6.9-5.9c-0.7-0.6-1-1.8-0.7-2.7
					c1.3-3.4,2.3-6.9,3.1-10.4c0.2-0.9,1-2.1,1.7-2.6l12.2-8.6c0.8-0.5,1.4-1.7,1.4-2.6V176c0-0.5-0.2-0.8-0.5-1l0,0l-10-5.8l0,0
					c-0.3-0.2-0.6-0.2-1,0l-6.9,3.1c-0.1-0.6,0-1.2,0.2-1.6l7.9-16c0.4-0.8,0.1-1.9-0.7-2.3l-6.6-3.8c0,0,0,0,0,0l-12.1-7
					c-0.8-0.5-1.9-0.2-2.4,0.6l-9.9,14.9c-0.3,0.4-0.8,0.8-1.3,1l-0.8-7.5c0-0.4-0.2-0.7-0.5-0.9l0,0l-10-5.8l0,0
					c-0.3-0.2-0.7-0.2-1.1,0.1l-13.4,7.7c-0.8,0.5-1.5,1.6-1.6,2.5l-1.3,14.9c-0.1,0.9-0.7,2.2-1.4,2.8c-2.6,2.4-5.1,5-7.4,7.9
					c-0.6,0.7-1.8,1.1-2.6,0.7l-8.6-3c-0.9-0.3-2,0.1-2.4,0.9l-9.8,17c-0.5,0.8-0.3,1.9,0.4,2.5l6.9,5.9c0.7,0.6,1,1.8,0.7,2.6
					c-1.3,3.4-2.3,6.9-3.1,10.4c-0.2,0.9-1,2.1-1.7,2.6l-12.2,8.6c-0.8,0.5-1.4,1.7-1.4,2.6l0,15.5c0,0.5,0.2,0.8,0.5,1l0,0
					l10.1,5.8l0,0c0.3,0.2,0.6,0.2,1,0l6.9-3.1c0.1,0.6,0,1.2-0.2,1.6l-7.9,16c-0.4,0.8-0.1,1.9,0.7,2.3l10,5.8c0,0,0,0,0,0l8.6,5
					c0.8,0.5,1.9,0.2,2.4-0.6l9.9-14.9c0.3-0.4,0.8-0.8,1.3-1l0.8,7.5c0,0.4,0.2,0.7,0.5,0.9l0,0l10,5.8l0,0
					C158,278.5,158.4,278.5,158.8,278.2z M178,184.9c2.3,2.4,3.6,6.5,3.6,12.1c0,14.4-10.1,32-22.6,39.2c-4.6,2.6-8.6,3.8-11.8,3.5
					c-2.6-2.7-4.2-7.1-4.2-12.7c0-14.4,10.1-32,22.6-39.2C170.1,185.2,174.4,184.3,178,184.9z"/>
			</g>
			<g class="st15">
				<path d="M158.8,278.2l13.4-7.7c0.8-0.5,1.5-1.6,1.6-2.5l1.3-14.9c0.1-0.9,0.7-2.2,1.4-2.8c2.6-2.4,5.1-5,7.4-7.9
					c0.6-0.7,1.8-1.1,2.6-0.7l8.6,3c0.9,0.3,2-0.1,2.4-0.9l9.8-17c0.5-0.8,0.3-1.9-0.4-2.5l-6.9-5.9c-0.7-0.6-1-1.8-0.7-2.7
					c1.3-3.4,2.3-6.9,3.1-10.4c0.2-0.9,1-2.1,1.7-2.6l12.2-8.6c0.8-0.5,1.4-1.7,1.4-2.6V176c0-0.5-0.2-0.8-0.5-1l0,0l-10-5.8l0,0
					c-0.3-0.2-0.6-0.2-1,0l-6.9,3.1c-0.1-0.6,0-1.2,0.2-1.6l7.9-16c0.4-0.8,0.1-1.9-0.7-2.3l-6.6-3.8c0,0,0,0,0,0l-12.1-7
					c-0.8-0.5-1.9-0.2-2.4,0.6l-9.9,14.9c-0.3,0.4-0.8,0.8-1.3,1l-0.8-7.5c0-0.4-0.2-0.7-0.5-0.9l0,0l-10-5.8l0,0
					c-0.3-0.2-0.7-0.2-1.1,0.1l-13.4,7.7c-0.8,0.5-1.5,1.6-1.6,2.5l-1.3,14.9c-0.1,0.9-0.7,2.2-1.4,2.8c-2.6,2.4-5.1,5-7.4,7.9
					c-0.6,0.7-1.8,1.1-2.6,0.7l-8.6-3c-0.9-0.3-2,0.1-2.4,0.9l-9.8,17c-0.5,0.8-0.3,1.9,0.4,2.5l6.9,5.9c0.7,0.6,1,1.8,0.7,2.6
					c-1.3,3.4-2.3,6.9-3.1,10.4c-0.2,0.9-1,2.1-1.7,2.6l-12.2,8.6c-0.8,0.5-1.4,1.7-1.4,2.6l0,15.5c0,0.5,0.2,0.8,0.5,1l0,0
					l10.1,5.8l0,0c0.3,0.2,0.6,0.2,1,0l6.9-3.1c0.1,0.6,0,1.2-0.2,1.6l-7.9,16c-0.4,0.8-0.1,1.9,0.7,2.3l10,5.8c0,0,0,0,0,0l8.6,5
					c0.8,0.5,1.9,0.2,2.4-0.6l9.9-14.9c0.3-0.4,0.8-0.8,1.3-1l0.8,7.5c0,0.4,0.2,0.7,0.5,0.9l0,0l10,5.8l0,0
					C158,278.5,158.4,278.5,158.8,278.2z M178,184.9c2.3,2.4,3.6,6.5,3.6,12.1c0,14.4-10.1,32-22.6,39.2c-4.6,2.6-8.6,3.8-11.8,3.5
					c-2.6-2.7-4.2-7.1-4.2-12.7c0-14.4,10.1-32,22.6-39.2C170.1,185.2,174.4,184.3,178,184.9z"/>
			</g>
			<g class="st16">
				<path d="M124,275.4c-0.6-0.5-0.9-1.4-0.5-2.2l7.9-16c0.1-0.3,0.2-0.6,0.2-0.9l-10.1-5.8c0,0.3-0.1,0.6-0.2,0.9l-7.9,16
					c-0.4,0.8-0.1,1.9,0.7,2.3L124,275.4z M157.7,278.3L157.7,278.3c-0.1-0.1-0.2-0.1-0.3-0.2c-0.1-0.1-0.2-0.2-0.2-0.4
					c0-0.1-0.1-0.2-0.1-0.3l-1.3-13c0-0.1,0-0.2-0.1-0.3c-0.1-0.3-0.2-0.5-0.4-0.6c-0.1-0.1-0.2-0.2-0.4-0.2c-0.1,0-0.1,0-0.2-0.1
					c-0.2-0.1-0.5,0-0.7,0c-0.1,0-0.2,0-0.3,0.1c-2.1,0.5-4.2,0.6-6.1,0.6c-0.4,0-0.8,0.1-1.3,0.3l0.7,7.5c0.1,0.4,0.2,0.8,0.5,0.9
					l0,0L157.7,278.3z M113.6,252.8c-0.2-0.2-0.4-0.5-0.4-1l0-15.5c0-0.6,0.3-1.4,0.7-2l-10-5.8c-0.4,0.6-0.7,1.3-0.7,2l0,15.5
					c0,0.5,0.2,0.8,0.4,1L113.6,252.8z M155.5,176.1c0.2-0.5,0.4-0.9,0.4-1.3l1.3-14.9c0-0.4,0.2-0.8,0.4-1.2l-10-5.8
					c-0.2,0.4-0.4,0.8-0.4,1.2l-1.3,14.9c0,0.4-0.2,0.9-0.4,1.3L155.5,176.1z M123.5,203c-0.3-0.6-0.3-1.3,0.1-1.9l9.8-17.1
					c0.2-0.4,0.6-0.7,1-0.8l-10-5.8c-0.4,0.2-0.7,0.4-1,0.8l-9.8,17c-0.3,0.6-0.3,1.4,0,2L123.5,203z"/>
			</g>
			<g>
				<path id="XMLID_00000152242559963852136770000013801704026845441460_" class="st6" d="M173.8,268l1.3-14.9
					c0.1-0.9,0.7-2.2,1.4-2.8c2.6-2.4,5.1-5,7.4-7.9c0.6-0.7,1.8-1.1,2.6-0.7l8.6,3c0.9,0.3,2-0.1,2.4-0.9l9.8-17
					c0.5-0.8,0.3-1.9-0.4-2.5l-6.9-5.9c-0.7-0.6-1-1.8-0.7-2.7c1.3-3.4,2.3-6.9,3.1-10.4c0.2-0.9,1-2.1,1.7-2.6l12.2-8.6
					c0.8-0.5,1.4-1.7,1.4-2.6V176c0-0.9-0.7-1.4-1.5-1l-11.9,5.4c-0.8,0.4-1.7,0-2-0.9c-0.7-2.2-1.6-4.2-2.7-5.9
					c-0.5-0.8-0.6-2.1-0.2-2.9l7.9-16c0.4-0.8,0.1-1.9-0.7-2.3l-8.6-5c-0.8-0.5-1.9-0.2-2.4,0.6l-9.9,14.9c-0.5,0.8-1.7,1.3-2.6,1.3
					c-2-0.1-4.2,0.2-6.4,0.7c-0.9,0.2-1.7-0.3-1.8-1.3l-1.3-13c-0.1-0.9-0.8-1.3-1.6-0.8l-13.4,7.7c-0.8,0.5-1.5,1.6-1.6,2.5
					l-1.3,14.9c-0.1,0.9-0.7,2.2-1.4,2.8c-2.6,2.4-5.1,5-7.4,7.9c-0.6,0.7-1.8,1.1-2.6,0.7l-8.6-3c-0.9-0.3-2,0.1-2.4,0.9l-9.8,17
					c-0.5,0.8-0.3,1.9,0.4,2.5l6.9,5.9c0.7,0.6,1,1.8,0.7,2.6c-1.3,3.4-2.3,6.9-3.1,10.4c-0.2,0.9-1,2.1-1.7,2.6l-12.2,8.6
					c-0.8,0.5-1.4,1.7-1.4,2.6v15.5c0,0.9,0.7,1.4,1.5,1l11.9-5.4c0.8-0.4,1.7,0,2,0.9c0.7,2.2,1.6,4.2,2.7,5.9
					c0.5,0.8,0.6,2.1,0.2,2.9l-7.9,16c-0.4,0.8-0.1,1.9,0.7,2.3l8.6,5c0.8,0.5,1.9,0.2,2.4-0.6l9.9-14.9c0.5-0.8,1.7-1.3,2.6-1.3
					c2,0.1,4.2-0.2,6.4-0.7c0.9-0.2,1.7,0.3,1.8,1.3l1.3,13c0.1,0.9,0.8,1.3,1.6,0.8l13.4-7.7C173,270,173.7,268.9,173.8,268z
					 M165.5,240c-12.5,7.2-22.6,1.4-22.6-13.1c0-14.4,10.1-32,22.6-39.2c12.5-7.2,22.6-1.4,22.6,13.1
					C188.1,215.3,178,232.8,165.5,240z"/>
			</g>
		</g>
	</g>
</g>
<g id="Alert">
	<g id="Alert_2_">
		<g id="Bubble_6_">
			<path class="st6" d="M90.6,36.3C83.8,32.4,74.4,33,64.1,39c-20.8,12-37.6,41.2-37.6,65.2c0,12,4.2,20.4,11,24.3
				c2.8,1.6,10,5.8,12.9,7.4c6.8,3.9,16.2,3.4,26.6-2.6c20.8-12,37.6-41.2,37.6-65.2c0-12-4.2-20.4-11-24.3
				C100.7,42.1,93.4,37.9,90.6,36.3z"/>
			<path class="st5" d="M90.6,36.3C83.8,32.4,74.4,33,64.1,39c-20.8,12-37.6,41.2-37.6,65.2c0,12,4.2,20.4,11,24.3
				c2.8,1.6,10,5.8,12.9,7.4c6.8,3.9,16.2,3.4,26.6-2.6c20.8-12,37.6-41.2,37.6-65.2c0-12-4.2-20.4-11-24.3
				C100.7,42.1,93.4,37.9,90.6,36.3z"/>
			<ellipse transform="matrix(0.5 -0.866 0.866 0.5 -39.3204 111.4763)" class="st6" cx="76.9" cy="89.8" rx="53.2" ry="30.7"/>
			<path class="st6" d="M101.3,97.8c0,0,1.7,14.9,18.2,18.6c1.3,0.3,1.2,1.7,0.1,2.5c-2.1,1.4-9.5,4.6-17.7,2.6
				c-11.5-2.8-14.8-8-14.8-8L101.3,97.8z"/>
		</g>
		<g id="Alert_3_">
			<path class="st9" d="M73.5,65.4l-17.8,51.3c-1.9,5.3,0.6,7.4,5.5,4.6l31.2-18c4.9-2.8,6.6-9.1,3.8-14.1L82,64.6
				C79.2,59.7,75.3,60.1,73.5,65.4z"/>
			<g>
				<path class="st2" d="M78.8,96.1l-2.7,1.6c-0.5,0.3-0.9,0.1-0.9-0.5L74,76.8c0-0.6,0.3-1.3,0.8-1.5l5.1-3
					c0.5-0.3,0.9-0.1,0.8,0.5l-1.1,21.7C79.7,95.1,79.3,95.8,78.8,96.1z"/>
				<path class="st2" d="M77.4,107c-1.7,1-2.8-0.3-2.8-2.1c0-2.3,1.4-4.5,2.8-5.3c1.7-1,2.8,0.3,2.8,2.1
					C80.2,104,78.8,106.2,77.4,107z"/>
			</g>
		</g>
	</g>
</g>
<g id="Screwdriver">
	<g id="Screwdriver_2_">
		<path class="st1" d="M108,403c3.7-2.1,6.6-0.4,6.6,3.8s-3,9.4-6.6,11.5c-3.7,2.1-6.6,0.4-6.6-3.8C101.4,410.3,104.4,405.1,108,403
			z"/>
		<path class="st6" d="M38.6,353.3L38.6,353.3c-1.9-1.3-4.7-1.3-7.8,0.5c-5.8,3.4-10.5,11.5-10.5,18.2c0,3.7,1.4,6.2,3.7,7.1l0,0
			c4.8,2.7,10.8,0.1,10.8,0.1l8.4-16.7C43.2,358,41.4,355,38.6,353.3z"/>
		<path class="st12" d="M38.6,353.3L38.6,353.3c-1.9-1.3-4.7-1.3-7.8,0.5c-5.8,3.4-10.5,11.5-10.5,18.2c0,3.7,1.4,6.2,3.7,7.1l0,0
			c4.8,2.7,10.8,0.1,10.8,0.1l8.4-16.7C43.2,358,41.4,355,38.6,353.3z"/>
		<path class="st12" d="M32.5,370.9c-7.2,0.3-11-5.1-11-5.2c-0.8,2.1-1.2,4.2-1.2,6.3c0,3.7,1.4,6.2,3.7,7.1l0,0
			c4,2.3,8.8,0.8,10.3,0.3c0.1-0.1,0.3-0.2,0.5-0.2l2.7-5.4L32.5,370.9z"/>
		<path class="st6" d="M129,416.8L129,416.8c0,0-14.7-13.3-16.2-14.2c-1.5-0.9-68.2-39.4-69.5-40.1c0,0,0,0,0,0c0,0,0,0,0,0l0,0
			c-1.2-0.7-2.8-0.6-4.6,0.5c-3.7,2.1-6.6,7.2-6.6,11.5c0,2.1,0.7,3.6,1.9,4.3v0c0,0,0,0,0,0l0,0c0.3,0.2,66.6,38.5,69.5,40.1
			c2.9,1.6,20.3,6.9,20.3,6.9l0,0c0.7,0.3,1.5,0.3,2.5-0.3c2-1.2,3.7-4,3.7-6.4C129.9,418,129.5,417.2,129,416.8z"/>
		<path class="st12" d="M129.9,419c0-1.1-0.4-1.9-0.9-2.3c0,0-13.6-12.3-16-14c-1.2-0.9-3-0.9-5,0.3c-3.7,2.1-6.6,7.2-6.6,11.5
			c0,2.1,0.7,3.6,1.9,4.3l0,0c2.9,1.6,20.3,6.9,20.3,6.9l0,0c0.7,0.3,1.5,0.3,2.5-0.3C128.2,424.2,129.9,421.4,129.9,419z"/>
		<path class="st4" d="M70.2,399.7c-1.2-0.7-1.9-2.2-1.9-4.3c0-4.2,3-9.4,6.6-11.5c1.8-1.1,3.5-1.2,4.7-0.5c0,0,3.8,1.6,16.3,8.1
			s10.2,7.2,10.2,7.2l-0.9-0.5c-1.2-0.7-2.9-0.6-4.7,0.5c-3.7,2.1-6.6,7.2-6.6,11.5c0,2.1,0.7,3.6,1.9,4.3l1.2,0.7
			c0,0-1.6,0.5-10.2-4.5C78.2,405.7,70.2,399.7,70.2,399.7z"/>
		<path class="st2" d="M74.9,383.9c1.8-1.1,3.5-1.2,4.7-0.5c0,0,3.8,1.6,16.3,8.1s10.2,7.2,10.2,7.2l-0.9-0.5
			c-1.2-0.7-2.9-0.6-4.7,0.5c-1,0.6-2,1.4-2.8,2.3l-25.6-14.8C73,385.3,73.9,384.5,74.9,383.9z"/>
		<path class="st17" d="M122.5,423.3c0-2.3,1.6-5.2,3.7-6.4c2-1.2,3.7-0.2,3.7,2.1s-1.6,5.2-3.7,6.4
			C124.2,426.6,122.5,425.6,122.5,423.3z"/>
		<path class="st2" d="M168.6,445.4c0,0.1-0.1,0.3-0.2,0.4c-0.1,0-0.1,0-0.1,0v0c-0.3-0.1-5.3-1.9-6.8-2.6c-0.2-0.1-0.4-0.1-0.4-0.2
			l-35.5-20.5c-0.2-0.1-0.3-0.4-0.3-0.7s0.1-0.7,0.3-1.1c0.2-0.3,0.5-0.6,0.8-0.8c0.3-0.2,0.6-0.2,0.8-0.1l35.5,20.5
			c0.2,0.1,0.5,0.4,0.9,0.7c1.7,1.3,4.8,4,5.1,4.2l0,0C168.6,445.3,168.6,445.3,168.6,445.4z"/>
		<path class="st4" d="M168.6,445.4c0,0.1-0.1,0.3-0.2,0.4c-0.1,0-0.1,0-0.1,0v0c-0.3-0.1-5.3-1.9-6.8-2.6c0.5-0.4,1.4-0.2,2.4,0.2
			c1.1,0.5,4.2,2.2,4.4,2c0.2-0.2-2.1-1.6-3.4-2.5s-1.7-1.8-1.3-1.8c1.7,1.3,4.8,4,5.1,4.2l0,0C168.6,445.3,168.6,445.3,168.6,445.4
			z"/>
		<path class="st11" d="M126.6,420.3c0,0,35.4,20.3,35.9,20.7c0.3,0.2,0.5,0.7,1.1,1.3c0.6,0.5,1.7,1.3,2.8,2
			c2.3,1.4-0.6,0.2-3.1-1.6c-0.6-0.4-0.7-1.4-1.3-1.7c-3-1.7-36.1-19.9-36.1-19.9S126.2,420.4,126.6,420.3z"/>
	</g>
</g>
<g id="Character">
	<g id="Character_00000116953848070671795180000007265643281608978090_">
		<g id="Bottom_8_">
			<g>
				<path class="st18" d="M415.7,369l2-17.6l-20.1-1.8c0,0,0.9,13.6,0.7,19.8c-0.1,2.9-2.1,8.5-2.1,8.5s8.4,4.4,12.8,2.6
					c4.4-1.8,7.3-8.7,7.1-9.9C416,369.3,415.7,369,415.7,369z"/>
				<path class="st3" d="M372.9,396.8c-0.3,0-0.5,2.6,1,3.8c1.8,1.4,7.4,4.2,14.1,3.2s10.3-3.1,13-5.4c2.7-2.3,6.4-5.5,9.4-6.2
					c2.8-0.7,6.6-3,7.5-3.9s0.7-4.7,0.7-4.7L372.9,396.8z"/>
				<g id="XMLID_00000067200682157811173680000002267376735235637683_">
					<path class="st2" d="M415.7,369c0,0,0.8,0,1,0.9c0.2,1.1,0.5,4.1,1,5.8c0.7,2.4,1.2,7.3,0.8,9.3c-0.3,2-5.7,4.4-8.6,5.6
						c-3,1.2-6.4,3.6-9.5,6.1c-3.1,2.6-9.7,5.4-14.1,5.5c-5.2,0.1-11.1-1.5-12.5-3.9c-1.7-2.9-3-6.3,4.7-10c1.4-0.7,6.5-3.8,8.2-4.9
						c4.7-3,8-5.8,10-11c0.2-0.6,0.5-1.3,1.1-1.6c0.4-0.2,1-0.2,1.5-0.2c1.3,0.2,6.4,0.8,7.6,1.3c1,0.5,2.5,1,2.5,2.3
						c0,0.5-0.1,0.9-0.3,1.3c-0.1,0.3-0.2,0.6,0.1,0.8c0.2,0.1,0.5,0,0.7-0.2c0.8-0.7,1.4-1.6,2-2.5c0.4-0.5,1.5-1.9,1.9-2.3
						c0.4-0.3,0.9-0.5,1.3-0.9C415.8,370.2,415.7,369.6,415.7,369z"/>
				</g>
				<path class="st4" d="M400.5,396.7c1.3-1.1,2.7-2.2,4.1-3.2v0c0,0-9,5.6-12.7,3.2c-2.4-1.5-1.3-3.5-1.3-4.1s-8.4-4.8-10.7-5.1
					l0,0c-0.6,0.4-1.2,0.7-1.5,0.8c-6,2.5-6.7,5.5-5.6,9.4c1.4,2.4,6.7,4.7,13.4,4.6C390.7,402.3,397.4,399.4,400.5,396.7z"/>
				<path class="st4" d="M391.3,390.8c-4.8,2-2.7,2.8-1.4,3c1.3,0.2,9.3-4.6,14.2-8.5c5.1-4.1,9-9.5,10.8-11
					c0.7-0.6,1.5-1.2,2.1-1.9c-0.1-1-0.3-2-0.4-2.5c-0.2-0.9-1-0.9-1-0.9c0,0.6,0.1,1.2-0.3,1.6c-0.4,0.4-0.9,0.5-1.3,0.9
					c-0.5,0.4-1.6,1.8-1.9,2.3c-0.7,0.8-1.2,1.8-2,2.5C406,381.6,396.1,388.9,391.3,390.8z"/>
				<g>
					<g>
						<path class="st3" d="M390.3,393.1c0.1,0,0.2,0,0.3-0.1c0.2-0.2,0.2-0.5,0.1-0.7c-1.4-1.6-7.9-5.4-11.4-4.9
							c-0.3,0-0.4,0.3-0.4,0.5c0,0.3,0.2,0.4,0.5,0.4c3.3-0.4,9.5,3.3,10.5,4.6C390,393.1,390.2,393.1,390.3,393.1z"/>
					</g>
					<g>
						<path class="st3" d="M394.4,390.5c0.1,0,0.2,0,0.3-0.1c0.2-0.2,0.2-0.5,0.1-0.7c-1.4-1.6-7.9-5.4-11.4-4.9
							c-0.3,0-0.4,0.3-0.4,0.5c0,0.3,0.3,0.4,0.5,0.4c3.3-0.4,9.5,3.3,10.5,4.6C394.2,390.5,394.3,390.5,394.4,390.5z"/>
					</g>
					<g>
						<path class="st3" d="M398.6,388c0.1,0,0.2,0,0.3-0.1c0.2-0.2,0.2-0.5,0.1-0.7c-1.4-1.6-7.9-5.4-11.4-4.9
							c-0.3,0-0.4,0.3-0.4,0.5c0,0.3,0.3,0.4,0.5,0.4c3.3-0.4,9.5,3.3,10.5,4.6C398.3,388,398.4,388,398.6,388z"/>
					</g>
					<g>
						<path class="st3" d="M402.4,385.2c0.1,0,0.2,0,0.3-0.1c0.2-0.2,0.2-0.5,0.1-0.7c-1.4-1.6-7.9-5.4-11.4-4.9
							c-0.3,0-0.4,0.3-0.4,0.5c0,0.3,0.3,0.4,0.5,0.4c3.3-0.4,9.5,3.3,10.5,4.6C402.1,385.2,402.3,385.2,402.4,385.2z"/>
					</g>
					<g>
						<path class="st3" d="M406.2,382.4c0.1,0,0.2,0,0.3-0.1c0.2-0.2,0.2-0.5,0.1-0.7c-1.9-2.3-8.7-5.4-12.2-5
							c-0.3,0-0.4,0.3-0.4,0.5c0,0.3,0.3,0.4,0.5,0.4c3.2-0.4,9.7,2.6,11.3,4.6C405.9,382.4,406,382.4,406.2,382.4z"/>
					</g>
				</g>
			</g>
			<g>
				<path class="st18" d="M449,377.3l-4.8-21.2l20.9-3.3l0.3,20.9c0,0,1.6,5.6,0.4,7.6s-13.7,4-14.9,2.7
					C449.9,382.7,449,377.3,449,377.3z"/>
				<path class="st3" d="M451.1,410.7c0.5,4.8,1.5,7.8,3.6,10.4c2.1,2.6,5.7,3,9.3,1.7c3.6-1.3,8.2-4,9.1-8.3s0.5-7.1-0.6-11.4
					L451.1,410.7z"/>
				<g id="XMLID_00000085228087725412101860000017467562136452365990_">
					<path class="st2" d="M465.5,373.8c1.5-0.1,1.1,3.7,1.8,10.1c0.8,6.9,3.9,12.4,5,17.9c1.3,6.4,1,9.3-1.3,13.5
						c-2.4,4.2-11.2,9.2-16,4.1c-3.9-4.1-4.3-9.2-4.2-15.7c0-6.7,0.1-11.4-0.5-16.5c-0.5-4.8-2.5-9.2-1.3-9.9
						c0.1,0.7,1.4,5.6,2.3,5.5c0-0.6,0-1.2-0.1-1.8c-0.1-0.5,0-1.1,0.3-1.6c0.4-0.5,1.8-1.1,2.4-1.2c1.5-0.4,4.1-1,5.6-1.3
						c0.7-0.2,1.5-0.3,2.3-0.4c0.6-0.1,1.3-0.1,1.9,0c0.4,0.1,0.7,0.3,0.9,0.6c0.1,0.2,0.1,0.5,0.1,0.7c0,0.4,0.1,0.9,0.3,1.3
						c0.1,0.2,0.2,0.4,0.4,0.3c0.2-0.1,0.2-0.3,0.2-0.4C465.6,378.2,465.5,374.2,465.5,373.8z"/>
				</g>
				<path class="st4" d="M471.9,400c0.2,0.9,1.4,7-0.5,8.3c-2,1.5-3.4-3.3-3.4-3.3s-4.9-0.7-11.8,2.9c0.4,1-0.5,4.4-2.5,3.9
					c-1.9-0.5-3-7.5-3.1-7.5c0,6.2,0.5,11.1,4.2,15.1c4.7,5.1,13.6,0.1,16-4.1c2.4-4.2,2.6-7.2,1.3-13.5
					C472.2,401.1,472,400.6,471.9,400z"/>
				<path class="st4" d="M467.5,405.5c0.1,2.3,2.7,1.2,2.7-2.1s-1.8-11.4-2.4-16.8c-0.4-7.8-0.8-12.9-2.3-12.9c0,0.1,0,0.2,0,0.2
					c0,0,0.2,4.4,0.2,4.9c0.3,4.8,0.3,14,1,18.3C467.4,401.6,467.4,403.2,467.5,405.5z"/>
				<path class="st4" d="M457.1,407.7c-0.6-2.2-1.1-3.7-1.8-8c-0.7-4.3-3.3-12.8-4.5-17.4c-0.4-0.8-1.7-5-1.7-5
					c-1,0.3,0,4.4,0.5,6.3c0.5,1.9,1.1,4,1.7,6.7c1.6,5.4,1.7,13.5,2.7,16.6C454.9,410.1,457.7,410,457.1,407.7z"/>
				<g>
					<g>
						<path class="st3" d="M456.1,408.1c0.1,0,0.1,0,0.2-0.1c0.1,0,5.4-3.2,11.6-2.5c0.3,0,0.6-0.2,0.7-0.4c0.1-0.3-0.1-0.5-0.4-0.6
							c-6.6-0.7-12.2,2.5-12.4,2.7c-0.3,0.2-0.4,0.5-0.2,0.7C455.7,408.1,455.9,408.2,456.1,408.1z"/>
					</g>
					<g>
						<path class="st3" d="M454.6,403.2c0.1,0,0.1,0,0.2-0.1c0.1,0,6.1-3.3,13-2.8c0.3,0,0.6-0.2,0.7-0.5c0.1-0.3-0.1-0.5-0.5-0.5
							c-7.3-0.6-13.4,2.8-13.7,2.9c-0.3,0.2-0.4,0.5-0.2,0.7C454.2,403.2,454.4,403.2,454.6,403.2z"/>
					</g>
					<g>
						<path class="st3" d="M467.2,395.6c0.2,0,0.4-0.2,0.5-0.4c0.1-0.3-0.1-0.5-0.4-0.6c-6.9-1.2-13.4,2.7-13.7,2.8
							c-0.3,0.2-0.4,0.5-0.2,0.7c0.2,0.2,0.5,0.3,0.8,0.1c0.1,0,6.4-3.8,12.8-2.7C467,395.6,467.1,395.6,467.2,395.6z"/>
					</g>
					<g>
						<path class="st3" d="M466.6,391.1c0.2,0,0.4-0.2,0.5-0.4c0.1-0.3-0.1-0.5-0.4-0.6c-7.6-1.5-13.7,2.7-14,2.8
							c-0.3,0.2-0.3,0.5-0.2,0.7c0.2,0.2,0.5,0.2,0.8,0.1c0.1,0,6-4,13-2.6C466.4,391.1,466.5,391.1,466.6,391.1z"/>
					</g>
					<g>
						<path class="st3" d="M465.9,386c0.2,0,0.4-0.2,0.5-0.4c0.1-0.3-0.1-0.5-0.4-0.6c-7.1-1.5-13.8,2.8-14.1,3
							c-0.3,0.2-0.3,0.5-0.2,0.7s0.5,0.3,0.8,0.1c0.1,0,6.5-4.1,13.1-2.8C465.7,386,465.8,386,465.9,386z"/>
					</g>
				</g>
			</g>
			<g>
				<path id="XMLID_353_" class="st4" d="M457.4,213.9c2.9,37.6,4.1,93.7,4.1,93.7c0.3,2.9,1.9,6.9,3.2,20.9
					c1.4,14.9,1.3,36.1,1.3,36.1s-12.6,5.4-20.4,2.6c0,0-8.4-31.8-12.4-49.3c-3.8-16.6-6.7-42.5-6.7-42.5l-4.6,24.9
					c0,0,0.6,10.7,0.3,18.2c-0.3,8.7-5,42.1-5,42.1s-11.7,7-19.8,0.3c0,0-4-49-4.2-59.5c-0.5-20.6-1.1-61.1,1.3-87.6L457.4,213.9
					L457.4,213.9z"/>
				<path id="XMLID_352_" class="st3" d="M426.7,275.5l-4.1-26.7c0,0-9.5-1.4-14.3-6.1c0,0,3.1,6.2,12.1,8.6l4.1,24.3l-2.3,24.9
					L426.7,275.5z"/>
			</g>
			<g>
				<path class="st2" d="M466.4,365.4c-3.5,2.8-13.7,5.1-20.7,2.6l-1.4-5.9c5.3,1.8,16.1,0.6,22-3L466.4,365.4z"/>
			</g>
			<g>
				<path class="st2" d="M417.4,361.4c-2.4,2.4-13.3,4.4-19.8,0.6l-0.5-5.9c4.9,2.7,16.2,2.3,21-0.5L417.4,361.4z"/>
			</g>
			<g>
				<g>
					<path class="st2" d="M460.8,272.7c0,0,1.1,26.5,1,28.4s-14.5,5.7-14.8,4.5c-0.6-2-0.5-6.6-1.7-28.5
						C457.2,275.5,460.8,272.7,460.8,272.7z"/>
				</g>
				<path class="st4" d="M447.5,284.6c0.4-0.1,0.9-0.1,1.4-0.1c0.5,0,1.1,0,1.6-0.1c1.1-0.1,2.2-0.3,3.3-0.5
					c1.2-0.3,2.4-0.6,3.6-1.1c1-0.4,1.9-0.9,2.8-1.2c0.1,0,0.1,0.1,0,0.2c-0.9,0.7-2,1.1-3,1.5c-1,0.4-2,0.7-3,1
					c-1.1,0.3-2.2,0.5-3.3,0.6c-0.6,0.1-1.1,0.1-1.7,0.1c-0.5,0-1.3,0.1-1.8-0.1C447.4,284.8,447.4,284.6,447.5,284.6z"/>
				<path class="st4" d="M453.6,281.6c0,0.2,0.1,0.5,0.3,0.6c0.3,0.2,0.7,0.2,1,0c0.4-0.2,0.6-0.6,0.5-1c0-0.2-0.2-0.5-0.4-0.6
					c-0.2-0.2-0.5-0.2-0.7-0.2c-0.3,0-0.4,0.2-0.6,0.5C453.6,281.1,453.6,281.4,453.6,281.6z M454.2,281c0.1-0.1,0.3-0.1,0.4-0.1
					c0.4,0,0.5,0.8,0.2,1c-0.2,0.1-0.6,0.1-0.7-0.1C453.9,281.5,454,281.1,454.2,281z"/>
			</g>
		</g>
		<g id="Top_00000148625810106038889340000010420936007527447193_">
			<g>
				<path class="st19" d="M388.9,162.2c-4,5.1-12.3,17.5-12.3,17.5s-18.4-12.7-20.1-15.2c-3.5-4.9-4.4-9-9-10.2s-10.4-2.6-10.4-2.6
					l4.3,21.6c2,2.2,4.4,1.3,9.4,6.2c3.7,3.6,12.6,11.3,20.4,17.2c6.5,5,11.2,2.3,14.2-1.4c7.4-9,13.7-16.3,13.7-16.3l11-33.7
					C403.5,146.9,398.6,150,388.9,162.2z"/>
				<path class="st3" d="M412.3,144.4c-9.4-0.3-15.5,4.3-21.5,13.2c-3.6,5.4-14.3,21.2-14.3,21.2l-13.1-9.1c0,0-1.8,6-5.8,9
					c-3.5,2.6-6.4,1.1-6.4,1.1s5,5.9,14.1,13.3c9.9,8,13.3,8.7,17.7,5.4c2.2-1.7,3.6-3.5,7.8-8.2c5-5.7,8.6-10.6,8.6-10.6
					L412.3,144.4z"/>
			</g>
			<g id="Chest_8_">
				<g>
					<path class="st2" d="M422.1,144.2c0,0,21.8,1.2,27.2,3.7c2.5,1.1,7.9,7.6,6.8,23.1c-0.5,6.2-3,19-3,23.7
						c-0.1,6.6,5.8,28.1,5.8,28.1c-20.4,12.6-56.6,8.7-63.9,2c0,0,2.5-27.8,3.3-42.1c0,0-3.9-6.6-3.6-11c0.5-6.5,1.8-8.8,7.8-16.1
						c5.7-6.9,10.2-11.1,10.2-11.1L422.1,144.2z"/>
				</g>
			</g>
			<g id="XMLID_00000113342217405551828710000016675671538578145177_">
				<path class="st3" d="M441.7,99.3c7,0.8,8.7,12.3,7.1,18.7c-3.2,12.5-11.6,14-12,19.3c-4.2-2.5-8.4-4.9-12.6-7.4
					c-3.3-1.9-6.5-3.8-9.8-5.8c-0.9-0.5-1.8-1.1-2.7-1.6c-0.8-0.5-1.5-1.2-2.3-1.7c-0.6-0.4-1.3-0.2-2-0.3c-0.7-0.2-1.2-1-1.7-1.5
					c-0.5-0.7-0.9-1.4-1.2-2.2c-0.6-1.6-0.7-3.3-0.3-4.9c-0.6,0.7-1.1,1.5-1.5,2.4s-0.4,1.9-0.1,2.7c-2.9-1.9-3.2-9.4,2.4-12.1
					c1-0.5,1.6-2.1,2-3.1c0.3-0.8,0.6-1.7,1.2-2.4c0.5-0.7,1.1-1.4,1.6-2c1.2-1.3,2.4-2.4,3.8-3.5c4-3,10-5.9,15.2-4.8
					C434.2,90.4,440,93.5,441.7,99.3z"/>
				<g>
					<path class="st18" d="M436.4,142.3l0.7-11.6c0,0,3.2,1.9,6.2-1.2c3.5-3.6,3.8-7.5,1.9-10c-2.1-2.8-6.7-1.7-8.7,1.7
						c-3,0.7-4.2-3.6-1.9-8c0,0-14.6,1-21.4-10.1c-1.8-1.7-4.9-1.4-5.9,0.9c-0.7,1.6-1.7,4.4-1,10c0.3,2.1-0.7,4.5-0.7,7.3
						c0.3,11,2.8,14.6,5.8,16.4c1.9,1.2,5,1.8,8.2,1.9l-0.2,3l0,0c-0.1,1.6-0.4,1.7-1.8,1.7c-1.1,0.1-2.1,0.1-2.1,0.1
						s-8.5,10.7,2.1,12.1c11.6,1.6,23.2-6.5,25.7-10.2c0,0-0.9-0.2-3.5-0.5C437.4,145.4,436.7,144.5,436.4,142.3z"/>
					<g>
						<g id="XMLID_5531_">
							<path id="XMLID_5532_" class="st20" d="M423.2,126.7l-6,1.9c0.5,1.7,2.3,2.7,3.9,2.1C422.7,130.3,423.7,128.4,423.2,126.7z"
								/>
							<path class="st21" d="M422.8,128.1c-1.7,0-3.1,1.1-3.4,2.7c0.6,0.2,1.2,0.2,1.7,0c1.2-0.4,2-1.4,2.2-2.6
								C423.1,128.1,423,128.1,422.8,128.1z"/>
						</g>
						<g id="XMLID_10860_">
							<path id="XMLID_5530_" class="st3" d="M408.4,111.7l4-1.8c-0.5-1.1-1.7-1.6-2.8-1.1C408.5,109.3,408,110.6,408.4,111.7z"/>
							<path id="XMLID_5528_" class="st3" d="M412.8,115.1c0.1,1-0.7,1.9-1.7,2c-1,0.1-1.9-0.6-1.9-1.6c-0.1-1,0.7-1.9,1.7-2
								C411.9,113.4,412.7,114.1,412.8,115.1z"/>
						</g>
						<g id="XMLID_10858_">
							<path id="XMLID_5529_" class="st3" d="M427.4,113.3l-3.9-2.1c0.5-1.1,1.9-1.5,2.9-0.9C427.5,110.9,428,112.2,427.4,113.3z"/>
							<path id="XMLID_5527_" class="st3" d="M426.5,115.5c0.1,1-0.7,1.9-1.7,2c-1,0.1-1.9-0.6-1.9-1.6s0.7-1.9,1.7-2
								C425.6,113.8,426.4,114.5,426.5,115.5z"/>
						</g>
						<g id="XMLID_313_">
							<polygon id="XMLID_323_" class="st21" points="419.6,111.8 418.3,124.2 412.3,121 							"/>
						</g>
						<g id="XMLID_5525_">
							<path id="XMLID_00000062898826448360628300000012774069294344748456_" class="st21" d="M419.8,139.5c8,0.1,13-2.8,15.2-7.6
								c0,0-0.7,4.5-3.9,7c-3.6,2.7-11.5,2.8-11.5,2.8L419.8,139.5z"/>
						</g>
					</g>
				</g>
			</g>
			<g>
				<g>
					<path class="st22" d="M417.7,144.2c-10.4,10.1-16.3,24.4-17.4,36.4c-1.2,12-1.5,61.5-1.5,61.5s-6.9,0-10.1-2.3
						c1.9-27.5,3.8-54.4,5.1-68.1c0.5-4.7,2.4-8.8,4.7-12.4c6.2-9.6,13.7-14.9,13.7-14.9L417.7,144.2z"/>
					<g>
						<path class="st9" d="M390.8,209c2.8,0.7,5.6,1.3,8.4,1.8c0-1.4,0.1-2.8,0.1-4.2c-2.8-0.5-5.5-1.1-8.2-1.8
							C391.1,206.2,390.9,207.6,390.8,209z"/>
						<path class="st9" d="M399.1,221.4c-3-0.5-6-1.2-8.9-2.1c-0.1,1.4-0.2,2.9-0.3,4.3c3,0.9,6.1,1.5,9.2,2
							C399,224.3,399,222.9,399.1,221.4z"/>
					</g>
				</g>
				<g>
					<path class="st22" d="M436.9,144.1c-0.6,10.3-3.7,23.4-3.9,34.6c-0.2,20.2,6,65,6,65s14.5-0.2,23.6-6.6
						c0.1-4.9-4.1-21.9-6.1-29c-2-7.1-2.8-16.1-0.2-27.3s0.7-25.2-4.5-33.1L436.9,144.1z"/>
					<path class="st9" d="M437.1,228.4c11.9-0.9,19.4-4,23.1-6c-0.3-1.3-0.6-2.6-0.9-3.9c-4.8,2.5-14.6,5.1-22.7,5.8
						C436.8,225.8,436.9,227.1,437.1,228.4z"/>
					<path class="st9" d="M456.6,208.1c-0.3-1-0.6-2.1-0.8-3.3c-6.8,2.2-13.7,3.4-20.9,3.7c0.1,1.4,0.3,2.8,0.4,4.2
						c7.3-0.3,14.5-1.6,21.5-3.8C456.7,208.6,456.7,208.3,456.6,208.1z"/>
				</g>
			</g>
			<g>
				<path class="st22" d="M449.9,115c-0.4,2.3-1.1,4.4-2.1,6.3c-0.4-0.7-0.9-1.3-1.5-1.9c-2.8-3.4-6.5-6.3-10.6-8.7l0,0
					c-9.3-5.3-21.1-7.8-30.8-5.9c0.5-1.9,1.3-3.7,2.2-5.3c4.7-8.3,14.2-13.1,24.1-11.3C443.8,90.5,452.1,102.5,449.9,115z"/>
				<path class="st22" d="M441.8,91.3c-1.1-0.7-6.8-2.8-7.2-3c-2.9-1.2-7.8-1.5-13,2.2c-6.8,4.8-8.8,11.9-8.8,11.9l6,2.4l2,0.3
					c1.1-4.5,7.8-13.7,16.3-13.4c0.4,0,0.8,0,1.2,0.1c1,0.1,2.1,0.4,3.2,0.9c0,0,2.1,1.8,3,2.9C444.4,95.6,444.5,92.9,441.8,91.3z"
					/>
				<path class="st23" d="M441.8,91.3c-1.1-0.7-6.8-2.8-7.2-3c-2.9-1.2-7.8-1.5-13,2.2c-6.8,4.8-8.8,11.9-8.8,11.9l6,2.4l2,0.3
					c1.1-4.5,7.8-13.7,16.3-13.4c0.4,0,0.8,0,1.2,0.1c1,0.1,2.1,0.4,3.2,0.9c0,0,2.1,1.8,3,2.9C444.4,95.6,444.5,92.9,441.8,91.3z"
					/>
				<path class="st22" d="M420.7,105.2c1.3-5.2,10.3-17,20.6-12.4c0,0,2.1,1.8,3.1,2.9c0,0,0-2.8-2.6-4.3c-2.7-1.5-8.1-2.6-14.3,1.6
					c-6.8,4.8-8.7,11.9-8.7,11.9L420.7,105.2z"/>
				<path class="st24" d="M420.7,105.2c1.3-5.2,10.3-17,20.6-12.4c0,0,2.1,1.8,3.1,2.9c0,0,0-2.8-2.6-4.3c-2.7-1.5-8.1-2.6-14.3,1.6
					c-6.8,4.8-8.7,11.9-8.7,11.9L420.7,105.2z"/>
				<path class="st22" d="M436,109c-0.4-0.4-2.2-5.2-9.5-9.9c-4.5-2.9-14.2-3.8-18.5-4.1c-7.6-0.5-9.6,1-9.7,2.1
					c0,0.3-0.2,1.5-0.3,1.8s0,0.5,0.1,0.7c1,1.8,6.9,5.3,6.9,5.3c9.7-1.9,21.4,0.6,30.8,5.9L436,109z"/>
				<path class="st5" d="M436,109c-0.4-0.4-2.2-5.2-9.5-9.9c-4.5-2.9-14.2-3.8-18.5-4.1c-7.6-0.5-9.6,1-9.7,2.1
					c0,0.3-0.2,1.5-0.3,1.8s0,0.5,0.1,0.7c1,1.8,6.9,5.3,6.9,5.3c9.7-1.9,21.4,0.6,30.8,5.9L436,109z"/>
				<path class="st22" d="M435.7,110.8c-9.3-5.3-21.1-7.8-30.8-5.9c0,0-5.9-3.5-6.9-5.3c-0.5-1,0.2-3.4,9.6-2.8
					c4.3,0.3,14,1.2,18.5,4.1C433.5,105.6,435.3,110.3,435.7,110.8z"/>
				<path class="st24" d="M435.7,110.8c-9.3-5.3-21.1-7.8-30.8-5.9c0,0-5.9-3.5-6.9-5.3c-0.5-1,0.2-3.4,9.6-2.8
					c4.3,0.3,14,1.2,18.5,4.1C433.5,105.6,435.3,110.3,435.7,110.8z"/>
			</g>
			<g id="XMLID_293_">
				<path class="st6" d="M344.2,116.6l-5,1.4l9.8,22.4l-2.2,8.1l-3.5-0.6l-9.9-22.7l-5,1.4c-0.2,0.6-0.4,1.2-0.6,1.9
					c-3.1,11.5,1.3,27.6,9.7,36.1c4.3,4.3,8.7,5.8,12.5,4.7v0l5-1.4c0.3-0.1,0.6-0.2,0.9-0.3l89.1,88.2c0.6,9.5,4.5,19.6,10.6,25.7
					c3.2,3.2,6.4,4.8,9.5,5l5-1.4l-9.8-22.4l2.2-8.1l3.5,0.6l9.9,22.7l5-1.4c0.2-0.6,0.4-1.2,0.6-1.9c3.1-11.5-1.3-27.6-9.7-36.1
					c-4.2-4.2-8.6-5.7-12.4-4.8v0l-0.1,0c0,0,0,0-0.1,0l-4.8,1.3l0,0c-0.4,0.1-0.7,0.2-1.1,0.4l-89.1-88.2
					c-0.6-9.5-4.5-19.6-10.6-25.7C350.5,118.5,347.3,116.8,344.2,116.6z"/>
				<path class="st11" d="M344.2,116.6l-5,1.4l9.8,22.4l-2.2,8.1l-3.5-0.6l-9.9-22.7l-5,1.4c-0.2,0.6-0.4,1.2-0.6,1.9
					c-3.1,11.5,1.3,27.6,9.7,36.1c4.3,4.3,8.7,5.8,12.5,4.7v0l5-1.4c0.3-0.1,0.6-0.2,0.9-0.3l89.1,88.2c0.6,9.5,4.5,19.6,10.6,25.7
					c3.2,3.2,6.4,4.8,9.5,5l5-1.4l-9.8-22.4l2.2-8.1l3.5,0.6l9.9,22.7l5-1.4c0.2-0.6,0.4-1.2,0.6-1.9c3.1-11.5-1.3-27.6-9.7-36.1
					c-4.2-4.2-8.6-5.7-12.4-4.8v0l-0.1,0c0,0,0,0-0.1,0l-4.8,1.3l0,0c-0.4,0.1-0.7,0.2-1.1,0.4l-89.1-88.2
					c-0.6-9.5-4.5-19.6-10.6-25.7C350.5,118.5,347.3,116.8,344.2,116.6z"/>
				<polygon class="st25" points="349,140.4 354,139.1 351.3,149.3 346.8,148.5 				"/>
				<polygon class="st25" points="466.1,255.3 471.1,253.9 463.2,252.5 462.6,254.6 				"/>
				<polygon id="XMLID_316_" class="st25" points="445.1,255.8 450.1,254.4 359.7,164.9 354.7,166.3 				"/>
				<path id="XMLID_305_" class="st6" d="M454.7,236.8l-90.4-89.5c-0.6-9.5-4.5-19.6-10.6-25.7c-3.2-3.2-6.4-4.8-9.5-5l9.8,22.4
					l-2.8,10.3l-7.9-1.4l-9.9-22.7c-0.2,0.6-0.4,1.2-0.6,1.9c-3.1,11.5,1.3,27.6,9.7,36.1c6.2,6.2,12.8,6.5,17.2,1.8l90.4,89.5
					c0.6,9.5,4.5,19.6,10.6,25.7c3.2,3.2,6.4,4.8,9.5,5l-9.8-22.4l2.8-10.3l7.9,1.4l9.9,22.7c0.2-0.6,0.4-1.2,0.6-1.9
					c3.1-11.5-1.3-27.6-9.7-36.1C465.7,232.4,459.1,232.1,454.7,236.8z"/>
				<path id="XMLID_312_" class="st26" d="M454.7,236.8l-90.4-89.5c-0.6-9.5-4.5-19.6-10.6-25.7c-3.2-3.2-6.4-4.8-9.5-5l9.8,22.4
					l-2.8,10.3l-7.9-1.4l-9.9-22.7c-0.2,0.6-0.4,1.2-0.6,1.9c-3.1,11.5,1.3,27.6,9.7,36.1c6.2,6.2,12.8,6.5,17.2,1.8l90.4,89.5
					c0.6,9.5,4.5,19.6,10.6,25.7c3.2,3.2,6.4,4.8,9.5,5l-9.8-22.4l2.8-10.3l7.9,1.4l9.9,22.7c0.2-0.6,0.4-1.2,0.6-1.9
					c3.1-11.5-1.3-27.6-9.7-36.1C465.7,232.4,459.1,232.1,454.7,236.8z"/>
				<path class="st27" d="M371.5,160.4l74.2,73.5c2,1.9,3.1,5.5,2.4,7.9c-0.6,2.4-2.7,2.8-4.7,0.8L369.2,169c-2-1.9-3.1-5.5-2.4-7.8
					C367.4,158.8,369.5,158.4,371.5,160.4z"/>
				<path class="st27" d="M443.1,234.6l-74.2-73.5c-0.5-0.5-1.1-0.9-1.6-1.1c-0.2,0.3-0.4,0.7-0.5,1.1c-0.6,2.4,0.5,5.9,2.4,7.8
					l74.3,73.5c0.5,0.5,1.1,0.9,1.6,1.1c0.2-0.3,0.4-0.7,0.5-1.2C446.2,240,445.1,236.5,443.1,234.6z"/>
				<polygon id="XMLID_302_" class="st27" points="462.6,254.6 463.2,252.5 471.1,253.9 481,276.6 476,277.9 466.1,255.3 				"/>
				<polygon class="st11" points="344.2,116.6 354,139.1 351.3,149.3 354.9,139.1 				"/>
				<polygon class="st11" points="470.2,285.2 459.3,262.7 463.2,252.5 460.4,262.7 				"/>
			</g>
			<g>
				<path class="st21" d="M425.2,205.9c-2.8-2.4-3.6-2.7-6.6-2.8s-4.4-0.2-5.5-0.1c-1.2,0.1-5.2,1-5.9,1.4c-1.4,0.9,0.8,2.9,3,2.9
					c2.3-0.1,5.2-0.4,5.2-0.4L425.2,205.9z"/>
				<path class="st18" d="M452.2,148.2c9.1,2.4,14.3,5.6,16.2,10.3c3.3,8.3,10.8,34.2,11.9,41s0.6,8.5-5,11.6
					c-4.6,2.6-23.9,8.4-32.7,10.7c-2.4,0.6-5,0.1-6.9-1.4l-8.2-6.4l33.7-15.9l-7.6-22.8C453.6,175.3,446.3,158.9,452.2,148.2z"/>
				<path class="st3" d="M451.9,147.7c6,1.7,10.9,3.5,13.8,6.4c4,4.1,3.5,4,8.8,20.8s6.9,25.2,7.2,28.5c0.4,3.4-0.1,4.8-5.3,7.7
					c-5.2,2.9-19.8,6.6-19.8,6.6s-0.2-5.4-2.1-9.8c-1.8-4.4-4.5-4.7-4.5-4.7l10.3-5.7c0,0-6.3-17.8-8.6-23.7
					C449.4,168.2,446.6,157.9,451.9,147.7z"/>
				<path class="st18" d="M438.1,216.7c-1-0.2-1.3-4.3-3-4.9s-1.9-0.4-2.7-1.9c-0.8-1.6-2-2.2-3.1-2.1c-1,0.1-0.6-1.8-2.5-2.3
					c-1.5-0.4-5.6-0.3-7.3-0.1c-1.7,0.2-5.6,2.7-7.3,3.9s-0.5,2.3,0.6,2.9s3.1,0.1,3.1,0.1s-1.7,1.5-1.3,2.2
					c0.5,0.9,2.3,1.7,4.8,0.7c-1.6,1.1-1.4,2.2-0.1,2.7c1,0.4,2.5,0.2,4.2-0.4c2.2-0.8,5.1-1.8,6.9-1.1l1.7,1.3L438.1,216.7z"/>
				<path class="st21" d="M438.1,216.7c-0.4,0-0.7-0.5-0.9-0.8c-0.2-0.4-0.4-0.7-0.5-1.1c-0.3-0.7-0.6-1.4-1-2
					c-0.2-0.3-0.4-0.5-0.7-0.6l-1.1-0.4c-0.4-0.1-0.8-0.4-1-0.8c-0.2-0.4-0.4-0.7-0.5-1.1c0.3,0.3,0.5,0.6,0.8,0.9
					c0.3,0.2,0.6,0.3,0.9,0.4c0.4,0.1,0.8,0.2,1.2,0.3c0.5,0.2,0.8,0.6,1.1,0.9c0.5,0.7,0.7,1.5,0.9,2.3l0.3,1.1
					C437.7,216.1,437.8,216.4,438.1,216.7z"/>
				<path class="st21" d="M415.9,212.1c0.9-0.7,1.8-1.4,2.7-2c0.9-0.6,1.8-1.3,2.9-1.8c1.2-0.4,2.3-0.4,3.4-0.5
					c1.1-0.1,2.2-0.1,3.4,0c-1.1,0.3-2.2,0.5-3.3,0.6l-1.6,0.3c-0.5,0.1-1.1,0.2-1.5,0.3c-0.9,0.4-1.9,1-2.9,1.6
					C417.9,211.2,416.9,211.7,415.9,212.1z"/>
				<path class="st21" d="M431.2,211.5c-1.1,0.2-2.1,0.2-3.2,0.2c-1,0.1-1.9,0.4-2.9,0.8c-1.9,0.8-3.8,1.7-5.8,2.4
					c1.7-1.3,3.5-2.3,5.5-3.2c1-0.4,2.1-0.8,3.2-0.7C429.1,211.2,430.1,211.4,431.2,211.5z"/>
			</g>
			<g>
				<path class="st21" d="M331.9,160.7c-2.1-2.8-2.4-3.5-2.3-6.3c0-2.8,0-4.1,0.1-5.2c0.1-1.1,1.1-4.8,1.6-5.5
					c0.9-1.3,2.7,0.9,2.6,3c-0.2,2.1-0.6,4.9-0.6,4.9L331.9,160.7z"/>
				<path class="st18" d="M341.5,173.3c-0.1-0.9-4-1.5-4.5-3.1c-0.5-1.6-0.2-1.8-1.7-2.6c-1.5-0.9-2-2-1.9-3s-1.7-0.7-2-2.5
					c-0.3-1.4,0-5.3,0.2-6.9c0.2-1.6,2.8-5.2,4-6.7c1.2-1.5,2.2-0.4,2.7,0.7c0.5,1-0.1,3-0.1,3s1.5-1.5,2.2-1.1
					c0.9,0.5,1.5,2.2,0.4,4.5c1.1-1.5,2.1-1.2,2.6,0c0.3,1,0.1,2.4-0.6,4c-0.9,2-1.8,4.9-1.2,6.6c0.5,0.8,1.7,2.4,1.7,2.4
					L341.5,173.3z"/>
				<path class="st21" d="M338.2,152.2c-0.7,0.8-1.4,1.6-2,2.4c-0.6,0.8-1.3,1.6-1.8,2.7c-0.4,1.1-0.5,2.1-0.6,3.2
					c-0.1,1.1-0.2,2.1-0.1,3.2c0.3-1,0.5-2.1,0.8-3.1l0.3-1.5c0.1-0.5,0.2-1,0.4-1.4c0.4-0.9,1.1-1.7,1.6-2.6
					C337.2,154.1,337.8,153.1,338.2,152.2z"/>
				<path class="st21" d="M336.9,166.6c0.2-1,0.3-2,0.4-3c0.1-0.9,0.5-1.8,0.9-2.7c0.9-1.8,1.8-3.5,2.5-5.4c-1.3,1.6-2.3,3.2-3.3,5
					c-0.4,0.9-0.8,1.9-0.8,3C336.7,164.6,336.8,165.6,336.9,166.6z"/>
			</g>
		</g>
	</g>
</g>
<g id="Speech_Bubble">
	<g id="Speech_Bubble_9_">
		<g id="Speech_Bubble_14_">
			<path id="XMLID_4541_" class="st6" d="M360.9,94.8l2.7-5.1l-2.2-6.3v-3.8l6.6,3.8v3.8l-2.9,4.9c0,0.1-0.1,0.1-0.2,0.2l0,0
				L360.9,94.8z"/>
			<path id="XMLID_558_" class="st28" d="M360.9,94.8l2.7-5.1l-2.2-6.3v-3.8l6.6,3.8v3.8l-2.9,4.9c0,0.1-0.1,0.1-0.2,0.2l0,0
				L360.9,94.8z"/>
			<path id="XMLID_4444_" class="st6" d="M345.1,49.2c0-1.3,0.9-2.8,2-3.4l1.6-0.9c1.1-0.6,2.9-0.6,4,0l24.8,14.4
				c1.1,0.6,2,2.2,2,3.4v27.3c0,1.3-0.9,2.8-2,3.4l-1.6,0.9c-1.1,0.6-2.9,0.6-4,0l-8-4.6l-2.8,4.9c-0.2,0.3-0.6,0.3-0.8-0.1l-3-8.7
				l-10.2-5.9c-1.1-0.6-2-2.2-2-3.4L345.1,49.2z"/>
			<path id="XMLID_4441_" class="st28" d="M379.5,89.9c0,1.3-0.9,2.8-2,3.4l-1.6,0.9c-1,0.6-2.5,0.6-3.6,0.2
				c0.9,0.4,1.6-0.2,1.6-1.3V65.8c0-0.6-0.2-1.3-0.6-2l5.6-3.2c0.4,0.6,0.6,1.3,0.6,2V89.9z"/>
			<path id="XMLID_4440_" class="st29" d="M345.2,48.6c0.2-0.8,1-1.1,1.9-0.6l24.8,14.4c0.5,0.3,1,0.9,1.4,1.5l5.6-3.2
				c-0.4-0.6-0.9-1.2-1.4-1.5l-24.8-14.4c-1.1-0.6-2.9-0.6-4,0l-1.6,0.9C346.1,46.3,345.4,47.5,345.2,48.6z"/>
		</g>
		<g id="Like">
			<path class="st9" d="M351.1,70c0,0.6,0.7,2.2,1.4,2.6c0,0-0.2,0.5-0.2,1.2c0,0.9,0.8,2.3,1.9,3c1.1,0.7,8.6,5,8.6,5l0-11.2
				c0,0-2.4-5.4-2.6-6.1c-0.2-0.8,0-3.5,0-4c0-0.4-1.4-1.4-2.3-1c-0.2,0.1-0.4,0.3-0.5,0.6c-0.3,0.6-0.4,1.2-0.5,1.8
				c-0.1,1-0.1,2,0.2,3.2l-5.2-3c-0.4-0.3-0.8-0.3-1-0.1c-0.4,0.2-0.5,0.7-0.5,1.1c0,1,0.6,1.9,0.8,2.2c0,0-1-0.3-1,1.1
				c0,0.8,0.5,1.9,1.3,2.5C351.4,68.8,351.1,69,351.1,70z"/>
			<path class="st9" d="M367.8,73.6l0,12.1c0,0.3-0.2,0.4-0.4,0.2l-2.9-1.7c-0.2-0.1-0.4-0.5-0.4-0.7V71.5c0-0.3,0.2-0.4,0.4-0.2
				l2.9,1.7C367.6,73,367.8,73.3,367.8,73.6z"/>
		</g>
	</g>
</g>
<g id="Cone">
	<g id="Cone_3_">
		<g>
			<path class="st22" d="M361.5,436.4l-29-16.7c-0.5-0.3-1.2-0.5-1.9-0.5s-1.4,0.2-2,0.5l-29,16.7c-0.5,0.3-0.8,0.7-0.8,1.1v2.1
				c0,0.4,0.3,0.8,0.8,1.1l29,16.7c0.5,0.3,1.3,0.5,2,0.5s1.4-0.2,1.9-0.5l29-16.7c0.5-0.3,0.8-0.7,0.8-1.1v-2.1
				C362.3,437.1,362,436.7,361.5,436.4z"/>
			<path class="st12" d="M362.3,437.5v2.1c0,0.4-0.3,0.8-0.8,1.1l-29,16.7c-0.5,0.3-1.2,0.5-1.9,0.5v-38.8c0.7,0,1.4,0.2,1.9,0.5
				l29,16.7C362,436.7,362.3,437.1,362.3,437.5z"/>
			<path class="st24" d="M330.6,419.2v38.8c-0.7,0-1.4-0.2-2-0.5l-29-16.7c-0.5-0.3-0.8-0.7-0.8-1.1v-2.1c0-0.4,0.3-0.8,0.8-1.1
				l29-16.7C329.2,419.3,329.9,419.2,330.6,419.2z"/>
			<path class="st22" d="M328.6,455.4l-29-16.7c-1.1-0.6-1.1-1.6,0-2.2l29-16.7c1.1-0.6,2.8-0.6,3.9,0l29,16.7
				c1.1,0.6,1.1,1.6,0,2.2l-29,16.7C331.5,456,329.7,456,328.6,455.4z"/>
			<path class="st30" d="M328.6,455.4l-29-16.7c-1.1-0.6-1.1-1.6,0-2.2l29-16.7c1.1-0.6,2.8-0.6,3.9,0l29,16.7
				c1.1,0.6,1.1,1.6,0,2.2l-29,16.7C331.5,456,329.7,456,328.6,455.4z"/>
			<path class="st31" d="M330.6,419.2c-0.7,0-1.4,0.2-1.9,0.5l-29,16.7c-1.1,0.6-1.1,1.6,0,2.2l29,16.7c0.5,0.3,1.2,0.5,1.9,0.5
				V419.2z"/>
		</g>
		<path class="st22" d="M348.5,435.4L348.5,435.4l-12.8-38.5c0,0,0,0,0,0l0,0h0c-0.2-0.5-0.7-1.1-1.4-1.5c-2-1.2-5.3-1.2-7.3,0
			c-0.7,0.4-1.2,0.9-1.4,1.5h0l0,0c0,0,0,0,0,0l-12.8,38.5h0c-1.2,3.4,0.5,7,5,9.6c7.1,4.1,18.7,4.1,25.8,0
			C348,442.4,349.6,438.7,348.5,435.4z"/>
		<g>
			<path class="st9" d="M339.3,407.9L339.3,407.9l-1.8-5.5c0.3,0.9,0,1.9-0.8,2.8c-0.3,0.3-0.7,0.6-1.1,0.9c-2.7,1.6-7.2,1.6-10,0
				c-0.5-0.3-0.8-0.6-1.1-0.9c-0.8-0.8-1.1-1.8-0.8-2.8l-1.8,5.5l0,0c-0.3,0.9-0.2,1.9,0.4,2.8c0.4,0.7,1.1,1.3,2,1.9
				c0.7,0.4,1.4,0.7,2.2,0.9c2.6,0.8,5.6,0.8,8.2,0c0.8-0.2,1.5-0.5,2.2-0.9c0.9-0.5,1.6-1.2,2-1.9
				C339.5,409.8,339.6,408.8,339.3,407.9z"/>
			<path class="st9" d="M346.7,430L346.7,430l-1.8-5.5c0.3,0.9,0.3,1.8,0.1,2.8c-0.2,1-0.7,1.9-1.5,2.8c-0.7,0.7-1.5,1.4-2.5,2
				c-5.7,3.3-14.9,3.3-20.5,0c-1-0.6-1.9-1.3-2.5-2c-0.8-0.9-1.3-1.8-1.5-2.8c-0.2-0.9-0.2-1.8,0.1-2.7l-1.8,5.5l0,0.1
				c-0.3,0.9-0.4,1.8-0.2,2.8c0.4,2.1,1.9,4.1,4.7,5.7c6.4,3.7,16.8,3.7,23.2,0c2.8-1.6,4.3-3.6,4.7-5.7
				C347,431.8,347,430.9,346.7,430z"/>
			<path class="st9" d="M343,419L343,419l-1.8-5.5c0.3,0.9,0.2,1.9-0.2,2.8c-0.5,1-1.4,2-2.7,2.8c0,0-0.1,0-0.1,0.1
				c-4.2,2.4-11,2.4-15.2,0c0,0-0.1,0-0.1-0.1c-1.4-0.8-2.3-1.8-2.7-2.8c-0.4-0.9-0.5-1.8-0.2-2.8l-1.8,5.5l0,0
				c-0.3,0.9-0.3,1.9,0,2.8c0.3,1,1,1.9,2,2.7c0.4,0.4,0.9,0.7,1.5,1c1.4,0.8,3.1,1.4,4.9,1.7c2.6,0.5,5.5,0.5,8.2,0
				c1.8-0.3,3.4-0.9,4.9-1.7c0.6-0.3,1-0.7,1.5-1c1-0.8,1.7-1.8,2-2.7C343.3,420.8,343.3,419.9,343,419z"/>
		</g>
		<path class="st12" d="M330.6,394.5c-1.3,0-2.6,0.3-3.7,0.9c-0.7,0.4-1.2,0.9-1.4,1.5h0l0,0c0,0,0,0,0,0l-12.8,38.5h0
			c-1.2,3.4,0.5,7,5,9.6c3.6,2.1,8.2,3.1,12.9,3.1c0,0-0.1,0-0.1,0c-5.8-0.9-9.7-6.4-8.9-12.3l5.3-38.3L330.6,394.5z"/>
		<path class="st22" d="M326.9,399.5c-2-1.2-2-3.1,0-4.2s5.3-1.2,7.3,0c2,1.2,2,3.1,0,4.2C332.2,400.7,328.9,400.7,326.9,399.5z"/>
		<path class="st30" d="M326.9,399.5c-2-1.2-2-3.1,0-4.2s5.3-1.2,7.3,0c2,1.2,2,3.1,0,4.2C332.2,400.7,328.9,400.7,326.9,399.5z"/>
	</g>
</g>
</svg>
